<svg width="12" height="20" viewBox="0 0 12 20" fill="none" xmlns="http://www.w3.org/2000/svg">
<g clip-path="url(#clip0_127_23)">
<path d="M9.32362 18.7963L9.32361 18.7963L9.32493 18.7976C9.52733 18.9946 9.77718 19.1 10.0695 19.1C10.6484 19.1 11.1 18.6419 11.1 18.0407C11.1 17.7511 10.9877 17.4849 10.808 17.2881L10.8081 17.2881L10.8052 17.2851L3.43123 9.85L10.8052 2.41495L10.8052 2.41501L10.808 2.41196C10.9873 2.2156 11.1 1.95995 11.1 1.65936C11.1 1.05812 10.6484 0.6 10.0695 0.6C9.77701 0.6 9.52626 0.705593 9.32333 0.914648C9.32319 0.914795 9.32304 0.914944 9.3229 0.91509L1.22555 9.08389L1.22481 9.08466C1.01453 9.30135 0.899999 9.5576 0.899999 9.85C0.899999 10.1407 1.01326 10.4086 1.22611 10.6167C1.22631 10.6169 1.22651 10.6171 1.22671 10.6173L9.32362 18.7963Z" fill="#007AFF" stroke="#007AFF" stroke-width="0.2"/>
</g>
<defs>
<clipPath id="clip0_127_23">
<rect width="12" height="20" fill="white"/>
</clipPath>
</defs>
</svg>
