<svg width="6" height="11" viewBox="0 0 6 11" fill="none" xmlns="http://www.w3.org/2000/svg">
<g clip-path="url(#clip0_127_13)">
<path d="M6 5.5C6 5.34158 5.93864 5.19584 5.82206 5.08179L0.963186 0.164746C0.852756 0.0570276 0.717788 0 0.558278 0C0.245398 0 0 0.247119 0 0.576613C0 0.735024 0.0613457 0.88076 0.159505 0.988474L4.62577 5.5L0.159505 10.0115C0.0613457 10.1192 0 10.2586 0 10.4233C0 10.7528 0.245398 11 0.558278 11C0.717788 11 0.852756 10.943 0.963186 10.8289L5.82206 5.91818C5.93864 5.79782 6 5.65837 6 5.5Z" fill="#8E8E92"/>
</g>
<defs>
<clipPath id="clip0_127_13">
<rect width="6" height="11" fill="white"/>
</clipPath>
</defs>
</svg>
