<svg width="302" height="379" viewBox="0 0 302 379" fill="none" xmlns="http://www.w3.org/2000/svg">
<path d="M41.9161 200.307V180.921L38.3704 170.141L12.1623 136.977L5.4516 107.239L4 80.9432L7.44259 78.4049L13.9708 80.5784L19.0474 87.6539L23.4022 108.682L26.123 118.479L31.2869 122.929L38.6321 129.536L31.2869 122.929L40.6628 112.276L43.6453 79.4599V24.7672L45.208 16.5256L49.1899 13.9635L52.458 14.8202L54.1634 17.8027L56.7176 52.3237V84.0051H59.9857V10.8382L63.2538 6.57856L67.6562 5.15869L71.9713 9.37864L74.0575 85.1235L76.691 86.9242L79.1976 40.6475V23.2759L80.8634 18.5562H84.3377L88.2324 20.3569L90.731 24.9417L91.5639 51.4909L90.033 96.5142L92.8172 97.6247L96.704 69.6953L95.8711 51.2132L97.9573 45.2323L101.709 44.3995L104.033 46.0256L107.198 61.0968V119.2L98.6236 156.775L91.556 178.7L92.4444 196.873L95.7125 283.683" stroke="#FF3A30" stroke-width="2" stroke-linecap="round" stroke-linejoin="round"/>
<path d="M22.7673 374L28.4468 314.27L33.7614 280.471" stroke="#FF3A30" stroke-width="2" stroke-linecap="round" stroke-linejoin="round"/>
<path d="M100.98 374L97.4974 301.277L95.7126 283.683" stroke="#FF3A30" stroke-width="2" stroke-linecap="round" stroke-linejoin="round"/>
<path d="M37.926 239.469L33.7537 280.463" stroke="#FF3A30" stroke-width="2" stroke-linecap="round" stroke-linejoin="round"/>
<path d="M41.9161 200.3L38.9336 229.601" stroke="#FF3A30" stroke-width="2" stroke-linecap="round" stroke-linejoin="round"/>
<path opacity="0.25" d="M107.19 60.9381V119.042L98.814 155.776L91.556 178.541L91.5639 178.676L92.4365 196.714L95.7125 283.517L97.3862 299.992L97.4021 300.325V300.341L100.504 364.084L100.567 365.417L100.638 366.845L100.979 373.841H22.7677L28.4392 314.103L33.7617 280.304L37.9103 239.461L37.9262 239.469L47.3259 241.983L66.3791 247.092V232.742L47.3259 230.561L38.9336 229.601L38.9177 229.593L41.9161 200.141V180.762L41.0911 178.407L41.0594 178.311L41.0356 178.24L41.0118 178.177L38.0372 169.721L37.942 169.443L12.1623 136.81L5.4516 107.072L4.00793 80.9353L4 80.7846L7.44259 78.2462L13.9708 80.4197L19.0474 87.4873L23.1881 107.508L26.1151 118.312L31.2869 122.77L40.6628 112.109L43.6453 78.2462V24.6006L43.7802 24.0453L43.796 23.9818L43.8039 23.9342L45.6046 16.2638L45.6442 16.0813L49.1899 13.8048L52.458 14.6535L54.1555 17.644L56.6542 51.3084V51.475L56.7176 83.8385H59.9857V10.6795L63.2538 6.41987L67.6562 5L71.9634 9.21995L73.0898 49.9996L74.0496 84.9569L76.691 86.7655L78.9834 44.3518L79.1896 23.2759V23.1172L80.8633 18.3896H84.3377L88.2245 20.1982L88.867 21.5308L88.8908 21.5863L90.739 25.4096L90.7469 25.4255L90.858 29.1616L90.8818 30.0103L91.5401 52.0144L90.033 96.3555H90.0409L92.8093 97.4661L96.6961 69.5684V69.5446L96.704 69.5287L95.8791 51.1894V51.1815L95.8711 51.0466L97.9573 45.0736L101.709 44.2408L104.033 45.8589L107.19 60.9381Z" fill="#FF3A30"/>
<path d="M64.4834 216.458L66.3871 203.758L69.5362 215.546" stroke="#FF3A30" stroke-width="2" stroke-linecap="round" stroke-linejoin="round"/>
<path d="M64.4834 270.04L67.0058 282.962L69.5362 270.952" stroke="#FF3A30" stroke-width="2" stroke-linecap="round" stroke-linejoin="round"/>
<path d="M66.3792 266.264V263.884V247.092" stroke="#FF3A30" stroke-width="2" stroke-miterlimit="10"/>
<path d="M66.3792 232.743V220.226" stroke="#FF3A30" stroke-width="2" stroke-miterlimit="10"/>
<path d="M75.9058 272.578C81.1672 272.578 85.4324 269.751 85.4324 266.264C85.4324 262.777 81.1672 259.95 75.9058 259.95C70.6444 259.95 66.3792 262.777 66.3792 266.264C66.3792 269.751 70.6444 272.578 75.9058 272.578Z" fill="white" stroke="#FF3A30" stroke-width="2" stroke-linecap="round" stroke-linejoin="round"/>
<path d="M66.3789 247.092V263.884H47.3257V241.983L66.3789 247.092Z" fill="white"/>
<path d="M66.3789 219.361V232.742L47.3257 230.561V219.361H66.3789Z" fill="white"/>
<path d="M56.8523 272.578C62.1137 272.578 66.3789 269.751 66.3789 266.264C66.3789 262.777 62.1137 259.95 56.8523 259.95C51.5909 259.95 47.3257 262.777 47.3257 266.264C47.3257 269.751 51.5909 272.578 56.8523 272.578Z" fill="white" stroke="#FF3A30" stroke-width="2" stroke-linecap="round" stroke-linejoin="round"/>
<path d="M47.3257 220.225C47.3257 216.743 51.5932 213.911 56.8523 213.911C62.1114 213.911 66.3789 216.743 66.3789 220.225" fill="white"/>
<path d="M47.3257 220.225C47.3257 216.743 51.5932 213.911 56.8523 213.911C62.1114 213.911 66.3789 216.743 66.3789 220.225" stroke="#FF3A30" stroke-width="2" stroke-linecap="round" stroke-linejoin="round"/>
<path d="M85.4324 220.225V266.264C85.4324 262.774 81.1648 259.95 75.9058 259.95C70.6467 259.95 66.3792 262.774 66.3792 266.264V220.225C66.3792 218.369 67.6007 216.688 69.5362 215.537C71.2178 214.522 73.4626 213.911 75.9058 213.911C81.1648 213.911 85.4324 216.743 85.4324 220.225Z" fill="white" stroke="#FF3A30" stroke-width="2" stroke-linecap="round" stroke-linejoin="round"/>
<path d="M66.3789 247.092V266.264C66.3789 265.423 66.133 264.622 65.6809 263.884C64.261 261.576 60.8422 259.95 56.8523 259.95C52.8624 259.95 49.4436 261.576 48.0237 263.884C47.5716 264.622 47.3257 265.423 47.3257 266.264V241.983L66.3789 247.092Z" stroke="#FF3A30" stroke-width="2" stroke-miterlimit="10"/>
<path d="M47.3257 230.561V220.226" stroke="#FF3A30" stroke-width="2" stroke-miterlimit="10"/>
<path d="M66.3789 232.742V247.092L47.3256 241.983L37.9259 239.469L37.9101 239.461L33.7536 238.35L13.1536 226.642L38.9175 229.593L38.9333 229.601L47.3256 230.561L66.3789 232.742Z" stroke="black" stroke-width="2" stroke-linecap="round" stroke-linejoin="round"/>
<path d="M66.3792 225.397V251.574" stroke="#FF3A30" stroke-width="2" stroke-miterlimit="10"/>
<path d="M286.014 265.074C286.014 265.074 286.014 265.082 286.022 265.082L286.086 266.875L286.522 278.329" stroke="#FF3A30" stroke-width="2" stroke-linecap="round" stroke-linejoin="round"/>
<path d="M222.295 122.929L231.671 112.268L234.653 79.452V78.2463V24.7592L234.812 23.9343L236.216 16.5176L236.613 16.2638L240.19 13.9635L243.458 14.8122L245.164 17.8027L247.662 51.475L247.726 52.3238V83.8385V83.9972H250.986V83.8385V10.8382L250.994 10.8302L254.254 6.57856L258.664 5.15869L262.971 9.37864L265.058 85.1156L267.699 86.9242L270.198 40.6475V23.2759L271.863 18.5483H275.338L279.233 20.3569L279.899 21.5863L281.731 24.9417L281.747 25.4097L281.922 30.986L282.564 51.4829L282.548 51.9827V52.0144L282.12 64.5315L281.049 96.3556L281.041 96.5142L283.817 97.6247L287.712 69.6874L287.704 69.5684L286.879 51.2053L286.887 51.1894L288.957 45.2323L292.709 44.3995L295.041 46.0176L298.198 61.0968V119.042V119.2L289.624 156.775L282.572 178.676L282.564 178.7L283.183 191.392L283.445 196.873L283.881 208.414" stroke="#FF3A30" stroke-width="2" stroke-linecap="round" stroke-linejoin="round"/>
<path d="M284.254 218.33L284.389 221.82V221.828L284.968 237.248L285.063 239.842" stroke="#FF3A30" stroke-width="2" stroke-linecap="round" stroke-linejoin="round"/>
<path d="M229.632 129.536L222.295 122.929L217.123 118.471L214.402 108.682L210.055 87.6461L204.979 80.5785L198.451 78.405L195 80.9433L196.452 107.231L203.17 136.969L229.37 170.141L232.924 180.921V200.3" stroke="#FF3A30" stroke-width="2" stroke-linecap="round" stroke-linejoin="round"/>
<path d="M223.897 285.968L219.447 314.262L213.783 373.841L213.768 374" stroke="#FF3A30" stroke-width="2" stroke-linecap="round" stroke-linejoin="round"/>
<path d="M286.95 285.968L288.41 300.341L288.505 301.269L291.511 364.084L291.979 373.841L291.987 374" stroke="#FF3A30" stroke-width="2" stroke-linecap="round" stroke-linejoin="round"/>
<path d="M284.253 218.33C259.425 206.63 232.265 216.021 232.265 216.021L231.226 216.942L232.162 207.74C232.416 207.597 236.604 205.313 243.577 203.758C252.953 201.664 267.334 200.887 283.88 208.414L284.253 218.33Z" fill="white" stroke="#FF3A30" stroke-width="2" stroke-linecap="round" stroke-linejoin="round"/>
<path d="M232.924 200.3L232.163 207.74" stroke="#FF3A30" stroke-width="2" stroke-linecap="round" stroke-linejoin="round"/>
<path d="M231.226 216.941L230.6 223.097" stroke="#FF3A30" stroke-width="2" stroke-linecap="round" stroke-linejoin="round"/>
<path d="M285.911 262.211L286.015 265.074C285.911 264.82 284.198 260.577 280.819 255.143C278.36 251.185 275.02 246.592 270.777 242.436C266.779 238.517 261.98 234.979 256.364 232.742L237.311 230.561L229.926 229.712H229.918L226.761 229.355L228.847 224.009C228.847 224.009 229.466 223.644 230.592 223.105H230.6C235.692 220.685 251.192 214.887 267.699 224.009C267.699 224.009 273.989 226.992 279.542 232.568C281.612 234.638 283.579 237.066 285.063 239.842C285.071 239.842 285.071 239.85 285.071 239.85C285.531 240.699 285.943 241.563 286.3 242.467L287.236 251.629L285.911 262.179V262.211Z" fill="white" stroke="#FF3A30" stroke-width="2" stroke-linecap="round" stroke-linejoin="round"/>
<path d="M286.022 265.082C286.022 265.082 286.014 265.082 286.014 265.074L285.911 262.211L286.022 265.082Z" stroke="#FF3A30" stroke-width="2" stroke-linecap="round" stroke-linejoin="round"/>
<path opacity="0.25" d="M229.95 265.09L226.206 266.177L226.65 261.846C227.491 262.845 228.569 263.956 229.95 265.09Z" fill="white"/>
<path d="M286.95 285.968C255.848 295.835 224.857 286.269 223.897 285.968L224.762 280.463L224.857 279.527C225.896 279.59 235.438 279.987 248.653 276.798C269.92 283.778 284.682 278.987 286.522 278.329L286.72 283.675L286.95 285.968Z" fill="white" stroke="#FF3A30" stroke-width="2" stroke-linecap="round" stroke-linejoin="round"/>
<path d="M224.849 279.527H224.857L224.762 280.463L223.897 285.968H223.881L224.77 280.304L224.849 279.527Z" stroke="#FF3A30" stroke-width="2" stroke-linecap="round" stroke-linejoin="round"/>
<path d="M286.966 285.96C286.966 285.96 286.958 285.96 286.95 285.968L286.72 283.675L286.522 278.329L286.72 283.517L286.966 285.96Z" stroke="#FF3A30" stroke-width="2" stroke-linecap="round" stroke-linejoin="round"/>
<path opacity="0.25" d="M291.987 373.841H213.775L219.447 314.104L223.881 285.968H223.897C224.857 286.269 255.848 295.836 286.95 285.968C286.95 285.968 286.956 285.965 286.966 285.96L288.394 299.992L288.41 300.341L291.511 364.085L291.987 373.841Z" fill="#FF3A30"/>
<path opacity="0.25" d="M298.198 60.9381V119.042L289.822 155.776L282.564 178.541L283.183 191.392C275.766 190.313 268.421 191.717 262.115 193.914H262.107C261.71 193.724 252.437 189.385 232.924 193.272V180.762L228.95 169.443L203.17 136.81L196.459 107.072L195.008 80.7846L198.45 78.2462L204.979 80.4197L210.055 87.4873L214.196 107.508L217.123 118.312L222.295 122.77L231.671 112.109L234.653 78.2462V24.6006L236.652 16.0813L240.198 13.8048L243.466 14.6535L245.163 17.644L247.662 51.3084L247.725 83.8385H250.994V10.6795L254.262 6.41987L258.664 5L262.971 9.21995L264.098 49.9996L265.057 84.9569L267.699 86.7655L269.991 44.3518L270.197 23.1172L271.871 18.3896H275.345L279.232 20.1982L281.755 25.4255L282.548 52.0144L281.041 96.3555L283.817 97.4661L287.712 69.5287L286.879 51.0466L288.965 45.0736L292.717 44.2408L295.041 45.8589L298.198 60.9381Z" fill="#FF3A30"/>
<path d="M270.777 242.436C263.281 247.901 256.364 247.092 256.364 247.092V232.742C261.98 234.979 266.779 238.517 270.777 242.436Z" fill="white" stroke="#FF3A30" stroke-width="2" stroke-linecap="round" stroke-linejoin="round"/>
<path d="M284.975 237.209L285.07 239.85C285.07 239.85 285.071 239.842 285.063 239.842C283.579 237.066 281.612 234.639 279.542 232.568C281.319 229.618 282.968 226.08 284.388 221.828V221.86L285.983 228.927L284.975 237.185V237.209Z" fill="white" stroke="#FF3A30" stroke-width="2" stroke-linecap="round" stroke-linejoin="round"/>
<path d="M284.975 237.208L284.967 237.247" stroke="#FF3A30" stroke-width="2" stroke-linecap="round" stroke-linejoin="round"/>
<path d="M280.819 255.143C273.149 263.075 253.691 261.695 253.691 261.695C237.414 259.752 230.775 252.946 228.07 247.988C228.062 247.988 228.062 247.98 228.062 247.98C227.76 247.425 227.514 246.909 227.308 246.417C226.317 244.109 226.221 242.491 226.221 242.491L226.761 239.159L228.903 239.731H228.91L237.311 241.983L256.364 247.092C256.364 247.092 263.281 247.901 270.777 242.435C275.021 246.592 278.36 251.185 280.819 255.143Z" fill="white" stroke="#FF3A30" stroke-width="2" stroke-linecap="round" stroke-linejoin="round"/>
<path d="M284.388 221.82C282.968 226.08 281.318 229.617 279.542 232.568C273.989 226.992 267.699 224.009 267.699 224.009C251.192 214.887 235.692 220.686 230.6 223.097H230.592C229.465 223.644 228.847 224.009 228.847 224.009V219.052L231.21 216.957L231.226 216.942L232.265 216.021C232.265 216.021 259.425 206.63 284.253 218.33H284.261L284.388 221.82Z" fill="white" stroke="#FF3A30" stroke-width="2" stroke-linecap="round" stroke-linejoin="round"/>
<path d="M258.18 274.014C254.849 275.156 251.66 276.068 248.654 276.798C235.439 279.987 225.896 279.59 224.857 279.527H224.762L222.882 274.014L225.666 260.593L226.681 261.648L229.949 265.09C234.86 269.143 243.498 273.498 258.18 274.014Z" fill="white" stroke="#FF3A30" stroke-width="2" stroke-linecap="round" stroke-linejoin="round"/>
<path d="M288.124 274.03L286.72 278.258C286.72 278.258 286.657 278.282 286.522 278.329C284.682 278.988 269.92 283.779 248.654 276.798C251.66 276.069 254.849 275.156 258.18 274.014H258.259C258.339 274.022 258.474 274.022 258.672 274.022C258.958 274.03 259.354 274.03 259.846 274.014H259.981C260.243 274.014 260.536 273.998 260.845 273.99C261.393 273.974 262.019 273.943 262.709 273.895C263.852 273.824 265.168 273.705 266.604 273.522C267.12 273.459 267.635 273.387 268.183 273.308C268.207 273.3 268.238 273.3 268.262 273.292C268.603 273.245 268.952 273.189 269.301 273.126C269.872 273.023 270.459 272.919 271.054 272.801C271.173 272.777 271.3 272.753 271.419 272.721C271.919 272.618 272.426 272.507 272.942 272.38C273.085 272.356 273.236 272.317 273.378 272.277C273.957 272.134 274.536 271.983 275.123 271.809C275.71 271.65 276.297 271.468 276.892 271.27C277.146 271.19 277.408 271.103 277.662 271.016C277.701 271 277.733 270.992 277.773 270.976C277.86 270.952 277.939 270.921 278.027 270.889C278.098 270.865 278.169 270.833 278.241 270.81C278.582 270.683 278.923 270.556 279.256 270.429C279.288 270.421 279.312 270.405 279.343 270.397C279.55 270.31 279.756 270.23 279.954 270.143C280.176 270.056 280.39 269.969 280.613 269.866C280.795 269.786 280.977 269.707 281.16 269.62C281.533 269.453 281.905 269.279 282.27 269.096C282.921 268.771 283.571 268.422 284.206 268.057C284.848 267.684 285.475 267.296 286.086 266.875C286.086 266.867 286.094 266.867 286.094 266.867L288.124 274.03Z" fill="white" stroke="#FF3A30" stroke-width="2" stroke-linecap="round" stroke-linejoin="round"/>
<path d="M286.094 266.867C286.094 266.867 286.086 266.867 286.086 266.875C285.475 267.295 284.848 267.684 284.206 268.057C283.571 268.429 282.929 268.771 282.27 269.096C281.905 269.278 281.533 269.453 281.16 269.619C280.977 269.707 280.795 269.786 280.612 269.865C280.39 269.968 280.176 270.056 279.954 270.143C279.756 270.23 279.55 270.309 279.343 270.397C279.312 270.405 279.288 270.42 279.256 270.428C278.923 270.555 278.582 270.682 278.241 270.809C278.169 270.833 278.098 270.865 278.027 270.888C277.939 270.92 277.86 270.952 277.773 270.976C277.479 271.079 277.186 271.174 276.892 271.269C276.297 271.46 275.71 271.642 275.123 271.809C274.536 271.983 273.957 272.134 273.378 272.277C273.236 272.316 273.085 272.356 272.942 272.38C272.426 272.507 271.919 272.618 271.419 272.721C271.3 272.752 271.173 272.776 271.054 272.8C270.459 272.919 269.872 273.022 269.301 273.125C268.952 273.189 268.603 273.244 268.262 273.292C268.238 273.3 268.206 273.3 268.183 273.308C267.635 273.387 267.12 273.458 266.604 273.522C265.168 273.704 263.852 273.823 262.709 273.895C262.019 273.942 261.393 273.974 260.845 273.99C260.536 273.998 260.243 274.014 259.981 274.014C259.544 274.03 259.172 274.03 258.886 274.03C258.569 274.03 258.371 274.022 258.259 274.014C258.212 274.014 258.18 274.014 258.18 274.014C243.498 273.498 234.859 269.143 229.949 265.09C229.775 264.947 229.608 264.804 229.45 264.67C229.116 264.384 228.815 264.106 228.522 263.829C228.379 263.694 228.236 263.551 228.101 263.416C227.831 263.147 227.57 262.877 227.332 262.623C227.094 262.361 226.864 262.099 226.657 261.854H226.65C226.277 261.401 225.944 260.981 225.666 260.592C224.484 258.958 224.056 257.864 224.056 257.864L224.762 252.708L227.308 246.417C227.514 246.909 227.76 247.425 228.061 247.972C228.061 247.972 228.061 247.988 228.069 247.988C230.774 252.946 237.414 259.752 253.69 261.695C253.69 261.695 273.148 263.075 280.819 255.143C284.198 260.577 285.911 264.82 286.014 265.074C286.014 265.074 286.017 265.077 286.022 265.082L286.094 266.867Z" fill="white" stroke="#FF3A30" stroke-width="2" stroke-linecap="round" stroke-linejoin="round"/>
<path d="M223.882 285.968H223.873" stroke="#FF3A30" stroke-width="2" stroke-linecap="round" stroke-linejoin="round"/>
<path d="M285.237 197.389L283.889 208.351V208.414C267.334 200.887 252.953 201.664 243.577 203.758C243.577 203.758 251.343 197.682 262.107 193.914H262.115C268.421 191.717 275.766 190.313 283.183 191.392V191.416L285.237 197.389Z" fill="white" stroke="#FF3A30" stroke-width="2" stroke-linecap="round" stroke-linejoin="round"/>
<path d="M262.107 193.914C251.343 197.682 243.577 203.758 243.577 203.758C236.605 205.313 232.416 207.598 232.163 207.74C232.155 207.748 232.147 207.748 232.147 207.748L231.338 199.721L231.568 193.55C232.028 193.454 232.48 193.359 232.924 193.272C252.437 189.385 261.71 193.724 262.107 193.914Z" fill="white" stroke="#FF3A30" stroke-width="2" stroke-linecap="round" stroke-linejoin="round"/>
<path d="M262.124 193.922H262.115" stroke="#FF3A30" stroke-width="2" stroke-linecap="round" stroke-linejoin="round"/>
<path d="M256 247L227.911 239.469L227.895 239.461L223.738 238.35L203.138 226.642L228.902 229.593L228.918 229.601L254.5 232.5" stroke="#231F20" stroke-width="2" stroke-linecap="round" stroke-linejoin="round"/>
<path d="M277.909 241.492C278.18 241.542 278.441 241.363 278.492 241.091L279.311 236.666C279.361 236.395 279.182 236.134 278.91 236.084C278.639 236.033 278.378 236.213 278.328 236.484L277.599 240.417L273.666 239.689C273.395 239.639 273.134 239.818 273.084 240.09C273.033 240.361 273.213 240.622 273.484 240.672L277.909 241.492ZM262.767 228.442C265.897 230.09 273.252 234.976 277.588 241.283L278.412 240.717C273.948 234.224 266.436 229.244 263.233 227.558L262.767 228.442Z" fill="black"/>
<path d="M270.932 251.057C271.184 251.17 271.297 251.466 271.185 251.718L269.348 255.826C269.235 256.078 268.94 256.191 268.687 256.078C268.435 255.965 268.322 255.67 268.435 255.418L270.068 251.766L266.416 250.133C266.164 250.021 266.051 249.725 266.164 249.473C266.276 249.221 266.572 249.108 266.824 249.22L270.932 251.057ZM251.059 253.207C254.571 253.627 263.4 253.778 270.55 251.046L270.907 251.981C263.546 254.793 254.535 254.63 250.941 254.2L251.059 253.207Z" fill="black"/>
</svg>
