<svg width="277" height="379" viewBox="0 0 277 379" fill="none" xmlns="http://www.w3.org/2000/svg">
<g opacity="0.25">
<path d="M36.3061 218.041L35.7332 210.561L39.4414 205.206L77.5663 198.179L133.492 208.683L170.018 212.232L198.14 208.683L198.14 264.561L150.331 263.63L137.996 268.301L115.007 293.909L96.4974 299.312L94.9616 284.209L96.7521 284.296L96.4576 279.522" fill="white"/>
<path d="M262.031 266.495L215.654 262.723L198.14 262.723" fill="white"/>
<path d="M106.484 279.983L24.8311 276.219L19.3005 270.466L19.3005 260.288L24.8311 255.426" fill="white"/>
<path d="M54.7198 256.715L27.2979 256.715L19.8417 252.004L19.3005 243.314L22.6029 238.898L29.1441 235.699L54.1151 235.699" fill="white"/>
<path d="M29.144 235.699L24.274 233.264L22.4517 227.789L24.1228 221.24L29.144 218.041L61.2689 218.041L66.4493 215.304" fill="white"/>
<path d="M27.2981 261.036L31.1575 251.049L28.1496 228.792L46.0462 220.261L99.3065 274.564L90.7759 277.477L30.2345 271.445L27.2981 261.036Z" fill="white"/>
</g>
<path d="M96.4974 299.312L115.007 293.909L137.996 268.301L150.331 263.63L198.14 264.561L198.14 208.683L170.018 212.232L133.492 208.683L77.5663 198.179L39.4414 205.206L35.7332 210.561L36.3061 218.041" stroke="#FF3A30" stroke-width="2" stroke-linecap="round" stroke-linejoin="round"/>
<path d="M198.14 210.593L273.435 202.532" stroke="#FF3A30" stroke-width="2" stroke-linecap="round" stroke-linejoin="round"/>
<path d="M273.435 265.397L215.654 262.723L198.14 262.723" stroke="#FF3A30" stroke-width="2" stroke-linecap="round" stroke-linejoin="round"/>
<path d="M106.484 279.983L24.8311 276.219L19.3005 270.466L19.3005 260.288L24.8311 255.426" stroke="#FF3A30" stroke-width="2" stroke-linecap="round" stroke-linejoin="round"/>
<path d="M54.7198 255.919L27.2979 255.919L19.8417 252.004L19.3005 243.314L22.6029 238.898L29.1441 235.699L54.1151 235.699" stroke="#FF3A30" stroke-width="2" stroke-linecap="round" stroke-linejoin="round"/>
<path d="M29.144 235.699L24.274 233.264L22.4517 227.789L24.1228 221.24L29.144 218.041L61.2689 218.041L66.4493 215.304" stroke="#FF3A30" stroke-width="2" stroke-linecap="round" stroke-linejoin="round"/>
<path opacity="0.25" d="M60.9348 268.811L63.9587 248.948L77.5582 222.394L85.5477 212.033L79.9296 232.969L60.9348 268.811Z" fill="#F8C7C4" stroke="#FF3A30" stroke-width="2" stroke-linecap="round" stroke-linejoin="round"/>
<path opacity="0.25" d="M198.646 262.01L198.633 211.219L273.434 202.134L273.434 265.795L212.609 262.026L198.646 262.01Z" fill="#FF3A30"/>
<path opacity="0.25" d="M31.4517 276.529L39.3536 205.205" stroke="#FF3A30" stroke-width="2" stroke-linecap="round" stroke-linejoin="round"/>
<path opacity="0.25" d="M96.3779 279.521L94.1975 201.322" stroke="#FF3A30" stroke-width="2" stroke-linecap="round" stroke-linejoin="round"/>
<path d="M37.6189 129.568L30.2501 122.94L39.656 112.253L42.6481 79.332L42.6481 24.4564L44.2157 16.1964L48.2104 13.6261L51.489 14.4855L53.1999 17.4776L55.7622 52.1091L55.7622 83.8918L59.0407 83.8918L59.0407 10.4908L62.3193 6.21756L66.7357 4.79317L71.0647 9.02659L73.1575 85.0058L75.7995 86.8201L78.3141 40.3955L78.3141 22.9683L79.9852 18.2256L83.4706 18.2256L87.3778 20.0399L89.8844 24.6394L90.72 51.2735L89.1841 96.4409L91.9773 97.555L95.8765 69.5362L95.0409 50.995L97.1338 44.995L100.898 44.1594L103.229 45.7907L106.404 60.9102L106.404 119.2L97.8022 156.895L90.712 178.89L91.6033 197.121L78.1549 194.375L40.9133 200.566L40.9133 181.118L37.3563 170.303L11.0643 137.025L4.33221 107.192L2.87597 80.8201L6.32957 78.2737L12.8787 80.4541L17.9715 87.5523L22.3403 108.648L25.0697 118.476L30.2501 122.94L37.6189 129.568Z" stroke="#FF3A30" stroke-width="2" stroke-linecap="round" stroke-linejoin="round"/>
<path d="M91.6033 197.12L94.1975 198.282L94.1975 201.322" stroke="#FF3A30" stroke-width="2" stroke-linecap="round" stroke-linejoin="round"/>
<path d="M96.6719 284.296L31.0774 280.898L31.4514 276.53" stroke="#FF3A30" stroke-width="2" stroke-linecap="round" stroke-linejoin="round"/>
<path d="M40.9131 200.566L38.6611 201.378L39.3534 205.205" stroke="#FF3A30" stroke-width="2" stroke-linecap="round" stroke-linejoin="round"/>
<path d="M21.5762 374.424L27.4012 314.893L32.7328 280.978" stroke="#FF3A30" stroke-width="2" stroke-linecap="round" stroke-linejoin="round"/>
<path d="M99.9588 374.424L96.6723 301.85L94.8818 284.208" stroke="#FF3A30" stroke-width="2" stroke-linecap="round" stroke-linejoin="round"/>
<path d="M96.4177 299.312L94.8818 284.209L96.6723 284.296L96.3779 279.522" stroke="#FF3A30" stroke-width="2" stroke-linecap="round" stroke-linejoin="round"/>
<path opacity="0.25" d="M40.9133 200.566L40.9133 181.118L36.9266 169.762L11.0643 137.024L4.33221 107.191L2.87597 80.8199L6.32957 78.2734L12.8787 80.4538L17.9715 87.552L22.1254 107.637L25.0697 118.475L30.2501 122.939L39.656 112.252L42.6481 78.2734L42.6481 24.4562L44.6534 15.9097L48.2104 13.6258L51.489 14.4853L53.1999 17.4773L55.6985 51.2494L55.7622 83.8915L59.0407 83.8915L59.0407 10.4906L62.3193 6.21732L66.7357 4.79292L71.0647 9.02635L72.1867 49.9364L73.1575 85.0056L75.7995 86.8199L78.0992 44.2786L78.3141 22.9681L79.9852 18.2254L83.4706 18.2254L87.3778 20.0397L89.9003 25.2838L90.6961 51.9576L89.1841 96.4406L91.9773 97.5547L95.8765 69.536L95.0409 50.9948L97.1338 44.9947L100.898 44.1592L103.229 45.7905L106.404 60.9099L106.404 119.199L97.9932 156.051L90.712 178.889L91.6033 197.12L78.1549 194.375L40.9133 200.566Z" fill="#FF3A30"/>
<path opacity="0.25" d="M21.9741 374.822L99.9587 374.822L96.3758 300.686L94.707 284.155L32.9362 280.922L27.6371 314.86L21.9741 374.822Z" fill="#FF3A30"/>
</svg>
