<svg width="278" height="379" viewBox="0 0 278 379" fill="none" xmlns="http://www.w3.org/2000/svg">
<g opacity="0.25">
<path d="M37.2004 218.041L36.6274 210.561L40.3357 205.206L78.4606 198.179L134.387 208.683L170.912 212.232L199.034 208.683L199.034 264.561L151.225 263.63L138.891 268.301L115.901 293.909L97.3917 299.312L95.8559 284.209L97.6463 284.296L97.3519 279.522" fill="white"/>
<path d="M262.926 266.495L216.549 262.723L199.034 262.723" fill="white"/>
<path d="M107.378 279.983L25.7254 276.219L20.1948 270.466L20.1948 260.288L25.7254 255.426" fill="white"/>
<path d="M55.6141 256.715L28.1922 256.715L20.7359 252.004L20.1948 243.314L23.4972 238.898L30.0384 235.699L55.0093 235.699" fill="white"/>
<path d="M30.0383 235.699L25.1682 233.264L23.3459 227.789L25.017 221.24L30.0383 218.041L62.1631 218.041L67.3435 215.304" fill="white"/>
<path d="M28.1924 261.036L32.0518 251.049L29.0438 228.792L46.9405 220.261L100.201 274.564L91.6702 277.477L31.1287 271.445L28.1924 261.036Z" fill="white"/>
</g>
<path d="M97.3917 299.312L115.901 293.909L138.891 268.301L151.225 263.63L199.034 264.561L199.034 208.683L170.912 212.232L134.387 208.683L78.4606 198.179L40.3357 205.206L36.6274 210.561L37.2004 218.041" stroke="#FF3A30" stroke-width="2" stroke-linecap="round" stroke-linejoin="round"/>
<path d="M199.034 210.593L274.329 202.532" stroke="#FF3A30" stroke-width="2" stroke-linecap="round" stroke-linejoin="round"/>
<path d="M274.329 265.397L216.549 262.723L199.034 262.723" stroke="#FF3A30" stroke-width="2" stroke-linecap="round" stroke-linejoin="round"/>
<path d="M107.378 279.983L25.7254 276.219L20.1948 270.466L20.1948 260.288L25.7254 255.426" stroke="#FF3A30" stroke-width="2" stroke-linecap="round" stroke-linejoin="round"/>
<path d="M55.6141 255.919L28.1922 255.919L20.7359 252.004L20.1948 243.314L23.4972 238.898L30.0384 235.699L55.0093 235.699" stroke="#FF3A30" stroke-width="2" stroke-linecap="round" stroke-linejoin="round"/>
<path d="M30.0383 235.699L25.1682 233.264L23.3459 227.789L25.017 221.24L30.0383 218.041L62.1631 218.041L67.3435 215.304" stroke="#FF3A30" stroke-width="2" stroke-linecap="round" stroke-linejoin="round"/>
<path opacity="0.25" d="M61.8291 268.811L64.853 248.948L78.4525 222.394L86.442 212.033L80.8239 232.969L61.8291 268.811Z" fill="#F8C7C4" stroke="#FF3A30" stroke-width="2" stroke-linecap="round" stroke-linejoin="round"/>
<path opacity="0.25" d="M199.54 262.01L199.527 211.219L274.329 202.134L274.329 265.795L213.503 262.026L199.54 262.01Z" fill="#FF3A30"/>
<path opacity="0.25" d="M32.3459 276.529L40.2478 205.205" stroke="#FF3A30" stroke-width="2" stroke-linecap="round" stroke-linejoin="round"/>
<path opacity="0.25" d="M97.2722 279.521L95.0918 201.322" stroke="#FF3A30" stroke-width="2" stroke-linecap="round" stroke-linejoin="round"/>
<path d="M40.5503 112.253L31.1444 122.94L25.964 118.476L23.2346 108.648L18.8658 87.5523L13.773 80.4541L7.22386 78.2737L3.77026 80.8201L5.2265 107.192L11.9586 137.025L38.2506 170.303L41.8076 181.118L41.8076 200.566L79.0492 194.375L92.4976 197.121L91.6063 178.89L98.6965 156.895L107.299 119.2L107.299 60.9102L104.124 45.7907L101.792 44.1594L98.0281 44.995L95.9352 50.995L96.7708 69.5362L92.8716 97.555L90.0784 96.4409L91.6142 51.2735L90.7787 24.6394L88.2721 20.0399L84.3649 18.2256L80.8794 18.2256L79.2083 22.9683L79.2083 40.3955L76.6937 86.8201L74.0518 85.0058L71.959 9.02659L67.63 4.79316L63.2136 6.21756L59.935 10.4908L59.935 83.8918L56.6565 83.8918L56.6565 52.1091L54.0941 17.4776L52.3833 14.4855L49.1047 13.6261L45.11 16.1964L43.5424 24.4564L43.5424 79.332L40.5503 112.253Z" stroke="#FF3A30" stroke-width="2" stroke-linecap="round" stroke-linejoin="round"/>
<path d="M92.4976 197.12L95.0917 198.282L95.0917 201.322" stroke="#FF3A30" stroke-width="2" stroke-linecap="round" stroke-linejoin="round"/>
<path d="M97.5662 284.296L31.9717 280.898L32.3457 276.53" stroke="#FF3A30" stroke-width="2" stroke-linecap="round" stroke-linejoin="round"/>
<path d="M41.8074 200.566L39.5554 201.378L40.2477 205.205" stroke="#FF3A30" stroke-width="2" stroke-linecap="round" stroke-linejoin="round"/>
<path d="M22.4705 374.424L28.2954 314.893L33.627 280.978" stroke="#FF3A30" stroke-width="2" stroke-linecap="round" stroke-linejoin="round"/>
<path d="M100.853 374.424L97.5666 301.85L95.7761 284.208" stroke="#FF3A30" stroke-width="2" stroke-linecap="round" stroke-linejoin="round"/>
<path d="M97.3119 299.312L95.7761 284.209L97.5666 284.296L97.2721 279.522" stroke="#FF3A30" stroke-width="2" stroke-linecap="round" stroke-linejoin="round"/>
<path opacity="0.25" d="M41.5373 200.5L41.5373 181.052L37.5506 169.696L11.6884 136.959L4.95624 107.125L3.49999 80.754L6.95359 78.2075L13.5027 80.3879L18.5956 87.4861L22.7494 107.571L25.6938 118.409L30.8742 122.874L40.28 112.186L43.2721 78.2075L43.2721 24.3902L45.2774 15.8438L48.8345 13.5599L52.113 14.4194L53.8239 17.4114L56.3226 51.1835L56.3862 83.8256L59.6648 83.8256L59.6648 10.4246L62.9433 6.1514L67.3598 4.727L71.6887 8.96043L72.8107 49.8705L73.7816 84.9397L76.4235 86.754L78.7232 44.2126L78.9381 22.9022L80.6092 18.1595L84.0946 18.1595L88.0018 19.9738L90.5244 25.2178L91.3201 51.8917L89.8082 96.3747L92.6013 97.4888L96.5005 69.4701L95.665 50.9289L97.7578 44.9288L101.522 44.0933L103.853 45.7246L107.028 60.844L107.028 119.133L98.6172 155.985L91.336 178.823L92.2273 197.054L78.7789 194.309L41.5373 200.5Z" fill="#FF3A30"/>
<path opacity="0.25" d="M22.8684 374.822L100.853 374.822L97.2701 300.686L95.6012 284.155L33.8305 280.922L28.5314 314.86L22.8684 374.822Z" fill="#FF3A30"/>
</svg>
