<svg width="302" height="379" viewBox="0 0 302 379" fill="none" xmlns="http://www.w3.org/2000/svg">
<path d="M37.2939 122.8L46.6723 112.145L49.6556 79.3205V24.6136L51.2186 16.3698L55.2016 13.8071L58.4706 14.664L60.1764 17.6473L62.7313 52.1773V83.8668H66.0002V10.681L69.2691 6.42024L73.6727 5L77.9889 9.22104L80.0756 84.9856L82.7098 86.7867L85.2171 40.498V23.1219L86.8833 18.401H90.3585L94.2542 20.2021L96.7535 24.7881L97.5866 51.3442L96.0553 96.3792L98.8402 97.49L102.728 69.5534L101.895 51.0665L103.982 45.084L107.735 44.2509L110.059 45.8775L113.225 60.9526V119.071L104.648 156.656L97.5787 178.586L98.4673 196.764L101.736 283.597" stroke="#FF3A30" stroke-width="2" stroke-linecap="round" stroke-linejoin="round"/>
<path d="M47.9259 200.199V180.808L44.3793 170.025L18.1644 136.852L11.452 107.106L10 80.8041L13.4435 78.2651L19.9734 80.4391L25.0513 87.5165L29.4073 108.55L32.1287 118.349L37.294 122.8" stroke="#FF3A30" stroke-width="2" stroke-linecap="round" stroke-linejoin="round"/>
<path d="M28.7725 373.937L34.4534 314.192L39.7694 280.384" stroke="#FF3A30" stroke-width="2" stroke-linecap="round" stroke-linejoin="round"/>
<path d="M107.005 373.936L103.522 301.195L101.736 283.597" stroke="#FF3A30" stroke-width="2" stroke-linecap="round" stroke-linejoin="round"/>
<path d="M43.9349 239.371L39.7615 280.375" stroke="#FF3A30" stroke-width="2" stroke-linecap="round" stroke-linejoin="round"/>
<path d="M47.9259 200.192L44.9426 229.501" stroke="#FF3A30" stroke-width="2" stroke-linecap="round" stroke-linejoin="round"/>
<path opacity="0.25" d="M113.217 61.0161V119.135L104.839 155.878L97.5787 178.65L97.5866 178.785L98.4594 196.827L101.736 283.652L103.41 300.132L103.426 300.465V300.481L106.529 364.241L106.592 365.574L106.663 367.002L107.005 374H28.7725L34.4455 314.247L39.7695 280.439L43.9191 239.585L43.935 239.593L53.3371 242.108L72.3953 247.218V232.865L53.3371 238.784L44.9426 229.723L44.9267 229.715L47.9259 200.255V180.871L47.1007 178.515L47.069 178.42L47.0452 178.348L47.0214 178.285L44.046 169.827L43.9508 169.549L18.1644 136.908L11.452 107.162L10.0079 81.0184L10 80.8677L13.4435 78.3287L19.9734 80.5027L25.0513 87.5721L29.193 107.598L32.1208 118.405L37.294 122.864L46.6723 112.2L49.6556 78.3287V24.6691L49.7905 24.1137L49.8063 24.0502L49.8143 24.0026L51.6153 16.3302L51.655 16.1477L55.2016 13.8705L58.4706 14.7195L60.1685 17.7107L62.6678 51.3839V51.5505L62.7313 83.9224H66.0002V10.7444L69.2691 6.48371L73.6727 5.06348L77.981 9.28452L79.1077 50.0747L80.0677 85.0411L82.7098 86.8501L85.0028 44.4255L85.2091 23.3441V23.1854L86.8833 18.4566H90.3585L94.2463 20.2656L94.889 21.5985L94.9128 21.6541L96.7615 25.4784L96.7694 25.4943L96.8805 29.2313L96.9043 30.0803L97.5628 52.09L96.0553 96.4427H96.0632L98.8323 97.5535L102.72 69.6486V69.6248L102.728 69.6089L101.903 51.2648V51.2569L101.895 51.122L103.982 45.1475L107.735 44.3144L110.059 45.933L113.217 61.0161Z" fill="#FF3A30"/>
<path d="M72.3953 266.173V263.793V246.996" stroke="#FF3A30" stroke-width="2" stroke-miterlimit="10"/>
<path d="M72.3953 249.075V236.554" stroke="#FF3A30" stroke-width="2" stroke-miterlimit="10"/>
<path d="M81.9243 285.977C87.1871 285.977 91.4534 283.149 91.4534 279.661C91.4534 276.173 87.1871 273.346 81.9243 273.346C76.6616 273.346 72.3953 276.173 72.3953 279.661C72.3953 283.149 76.6616 285.977 81.9243 285.977Z" fill="white" stroke="#FF3A30" stroke-width="2" stroke-linecap="round" stroke-linejoin="round"/>
<path d="M72.3953 260.484V277.281H53.3372V246.131L72.3953 260.484Z" fill="white"/>
<path d="M72.3953 232.746V246.131L53.3372 243.949V232.746H72.3953Z" fill="white"/>
<path d="M62.8662 285.977C68.129 285.977 72.3953 283.149 72.3953 279.661C72.3953 276.173 68.129 273.346 62.8662 273.346C57.6035 273.346 53.3372 276.173 53.3372 279.661C53.3372 283.149 57.6035 285.977 62.8662 285.977Z" fill="white" stroke="#FF3A30" stroke-width="2" stroke-linecap="round" stroke-linejoin="round"/>
<path d="M53.3372 233.611C53.3372 230.127 57.6058 227.295 62.8662 227.295C68.1267 227.295 72.3953 230.127 72.3953 233.611" fill="white"/>
<path d="M53.3372 233.611C53.3372 230.127 57.6058 227.295 62.8662 227.295C68.1267 227.295 72.3953 230.127 72.3953 233.611" stroke="#FF3A30" stroke-width="2" stroke-linecap="round" stroke-linejoin="round"/>
<path d="M91.4534 233.611V279.661C91.4534 276.17 87.1848 273.346 81.9243 273.346C76.6639 273.346 72.3953 276.17 72.3953 279.661V233.611C72.3953 231.754 73.6171 230.072 75.5531 228.921C77.2352 227.906 79.4806 227.295 81.9243 227.295C87.1848 227.295 91.4534 230.127 91.4534 233.611Z" fill="white" stroke="#FF3A30" stroke-width="2" stroke-linecap="round" stroke-linejoin="round"/>
<path d="M72.3953 260.484V279.661C72.3953 278.82 72.1494 278.019 71.6971 277.281C70.2769 274.972 66.8572 273.346 62.8662 273.346C58.8753 273.346 55.4556 274.972 54.0354 277.281C53.5831 278.019 53.3372 278.82 53.3372 279.661V246.131L72.3953 260.484Z" stroke="#FF3A30" stroke-width="2" stroke-miterlimit="10"/>
<path d="M53.3372 243.949V233.611" stroke="#FF3A30" stroke-width="2" stroke-miterlimit="10"/>
<path d="M72.3953 237.538V220.432" stroke="#FF3A30" stroke-width="2" stroke-miterlimit="10"/>
<path d="M72.3953 293.15V280.629" stroke="#FF3A30" stroke-width="2" stroke-miterlimit="10"/>
<path d="M72.3952 245.385V262.063L51.2345 246.433L43.5779 240.442L43.562 240.426L40.1661 237.784L38.5396 235.65L25.7812 218.94L48.3464 231.738L48.3622 231.754L55.7094 235.928L66.9364 242.291L72.3952 245.385Z" fill="white" stroke="#231F20" stroke-width="2" stroke-linecap="round" stroke-linejoin="round"/>
<path d="M72.3953 265.602V241.767" stroke="#FF3A30" stroke-width="2" stroke-miterlimit="10"/>
<path d="M280.218 269.291V269.355C276.703 270.092 261.176 273.584 243.696 281.359C234.612 285.398 224.963 290.603 216.164 297.18L218.798 280.439L220.719 261.539C227.034 257.628 233.882 254.121 240.642 251.058L254.995 245.068C255.09 245.028 255.185 244.988 255.272 244.957C265.674 240.966 274.537 238.252 278.996 236.967L280.218 269.291Z" stroke="#FF3A30" stroke-width="2" stroke-linecap="round" stroke-linejoin="round"/>
<path opacity="0.25" d="M254.987 245.068L240.634 251.058L234.374 246.433L226.709 240.442L226.693 240.426L223.305 237.784L223.163 237.594L223.964 229.723L223.948 229.715L224.162 227.581L231.486 231.738L231.502 231.754L238.841 235.92L250.076 242.291L254.987 245.068Z" fill="#FF3A30"/>
<path opacity="0.25" d="M286.026 373.937V374H207.794L213.467 314.247L214.99 304.591C228.042 306.336 259.057 309.613 282.543 305.725C282.559 305.725 282.583 305.725 282.598 305.725C282.63 305.717 282.662 305.717 282.694 305.71H282.702L285.09 354.712L285.129 355.592L285.55 364.249L285.613 365.582L285.685 367.01L286.026 373.944V373.937Z" fill="#FF3A30"/>
<path opacity="0.25" d="M292.239 61.0161V119.135L283.86 155.878L283.812 156.021L278.441 172.874L276.6 178.642L277.481 196.764L277.655 201.453H277.647C277.243 201.39 276.981 201.35 276.981 201.35C265.825 199.953 245.974 198.113 226.947 199.565V180.871L226.122 178.515L226.09 178.42L226.067 178.348L226.043 178.285V178.261L226.027 178.245L223.075 169.851V169.827L222.98 169.549L197.194 136.908L190.481 107.162V107.098L189.029 80.8677L192.473 78.3287L199.003 80.5027L204.081 87.5722L208.222 107.598L208.294 107.868L210.38 115.58L211.15 118.405L216.323 122.864L225.702 112.2L225.884 110.145L228.685 78.3287V24.6691L228.82 24.1137L228.836 24.0502V24.0026L230.645 16.3302L230.684 16.1477L234.231 13.8705L237.5 14.7195L239.198 17.7107L241.697 51.3839V51.6536L241.753 79.8759V83.8589L241.761 83.9224H245.03V10.7444L248.298 6.48371L252.702 5.06348L257.01 9.28452L259.097 84.9776V85.0411L261.739 86.8501V86.7867L264.032 44.4255V44.2985L264.238 23.3441V23.1854L265.913 18.4566H269.388L273.276 20.2656L273.918 21.5985L273.942 21.6541L275.791 25.4784V25.4943L275.91 29.2313L275.934 30.0803L276.592 52.0424L275.085 96.3792V96.4427H275.093L277.862 97.5535L281.749 69.6486V69.6089L281.757 69.5454L280.924 51.1141L283.011 45.1475L286.764 44.3144L289.089 45.933L292.246 61.0161H292.239Z" fill="#FF3A30"/>
<path d="M278.996 236.967L277.655 201.453L277.481 196.764L276.6 178.634V178.586L278.361 173.112L278.441 172.874L283.669 156.656L283.812 156.021L283.82 156.005L292.238 119.071V61.0161V60.9526L289.081 45.8695L286.756 44.2509L283.003 45.084L280.916 51.0586V51.1062L281.749 69.5454L281.741 69.6248L277.854 97.49L275.077 96.3792L276.584 52.0424L276.608 51.3363L275.775 24.7881L273.268 20.2021L269.38 18.3931H265.904L264.23 23.1219V23.1854V23.3441V40.498L264.024 44.2985V44.3223L261.731 86.7867L259.089 84.9776L257.002 9.28452V9.22104L252.694 5L248.29 6.42024L245.021 10.681V10.7444V83.8589H241.753V52.1773L239.19 17.6473L237.492 14.656L234.223 13.8071L230.24 16.3619L228.677 24.6056V24.6691V78.3287V79.3126L225.924 109.622L225.876 110.145L225.694 112.137L216.315 122.8" stroke="#FF3A30" stroke-width="2" stroke-linecap="round" stroke-linejoin="round"/>
<path d="M278.837 232.849H278.83C277.195 232.341 275.926 231.952 275.926 231.952C253.003 224.264 235.905 211.442 226.947 204.309C226.947 204.309 226.797 204.198 226.566 204.016L226.947 200.255V199.565C245.974 198.113 265.825 199.953 276.981 201.35C276.981 201.35 277.243 201.39 277.647 201.453H277.655L278.837 232.849Z" stroke="#FF3A30" stroke-width="2" stroke-linecap="round" stroke-linejoin="round"/>
<path d="M216.315 122.8L211.142 118.341L210.372 115.58L208.429 108.55L208.286 107.868L204.073 87.5086L198.995 80.4391L192.465 78.2651L189.021 80.8041V80.8676L190.473 107.098L197.186 136.844L223.401 170.025L226.947 180.808V180.871V199.565" stroke="#FF3A30" stroke-width="2" stroke-linecap="round" stroke-linejoin="round"/>
<path d="M207.786 373.937L213.467 314.192L218.783 280.384" stroke="#FF3A30" stroke-width="2" stroke-linecap="round" stroke-linejoin="round"/>
<path d="M282.209 297.95H282.202M282.202 297.95C272.252 292.459 257.391 285.191 243.688 281.359C261.168 273.583 276.695 270.092 280.21 269.354L280.75 283.589V283.652L282.202 297.95Z" stroke="#FF3A30" stroke-width="2" stroke-linecap="round" stroke-linejoin="round"/>
<path d="M282.432 300.132L282.543 301.187L286.026 373.937" stroke="#FF3A30" stroke-width="2" stroke-linecap="round" stroke-linejoin="round"/>
<path d="M282.21 297.95L280.758 283.589" stroke="#FF3A30" stroke-width="2" stroke-linecap="round" stroke-linejoin="round"/>
<path d="M222.956 239.371L218.783 280.375" stroke="#FF3A30" stroke-width="2" stroke-linecap="round" stroke-linejoin="round"/>
<path d="M278.996 236.967C274.537 238.252 265.674 240.966 255.273 244.957C255.185 244.989 255.09 245.028 254.995 245.068L250.084 242.291L238.849 235.92L231.509 231.754L231.494 231.738L224.17 227.581L226.574 204.016C226.804 204.198 226.955 204.309 226.955 204.309C235.913 211.442 253.011 224.264 275.933 231.953C275.933 231.953 277.203 232.341 278.837 232.849H278.845L279.004 236.967H278.996Z" stroke="#FF3A30" stroke-width="2" stroke-linecap="round" stroke-linejoin="round"/>
<path d="M223.964 229.501L224.162 227.581L226.558 204.008L226.947 200.192" stroke="#FF3A30" stroke-width="2" stroke-linecap="round" stroke-linejoin="round"/>
<path d="M240.634 251.058C233.874 254.121 227.026 257.628 220.711 261.539L222.94 239.585H222.956L223.162 237.594L223.305 237.784L226.693 240.426L226.709 240.442L234.374 246.433L240.634 251.058Z" stroke="#FF3A30" stroke-width="2" stroke-miterlimit="10"/>
<path d="M222.956 239.371L223.139 237.57L223.964 229.501" stroke="#FF3A30" stroke-width="2" stroke-miterlimit="10"/>
<path d="M254.987 245.068L240.634 251.058L234.374 246.433L226.709 240.442L226.693 240.426L223.305 237.784L223.162 237.594L223.139 237.57L221.671 235.642L208.92 218.94L224.154 227.581H224.162L231.486 231.738L231.501 231.754L238.841 235.92L250.076 242.291L254.987 245.068Z" fill="white" stroke="#231F20" stroke-width="2" stroke-linecap="round" stroke-linejoin="round"/>
<path d="M280.329 269.331H280.321C280.321 269.331 280.25 269.307 280.21 269.291" stroke="#FF3A30" stroke-width="2" stroke-miterlimit="10"/>
<path d="M226.568 204.017L226.559 204.008" stroke="#FF3A30" stroke-width="2" stroke-miterlimit="10"/>
<path d="M220.712 261.54L220.703 261.548" stroke="#FF3A30" stroke-width="2" stroke-miterlimit="10"/>
<path d="M280.313 269.331C280.313 269.331 280.257 269.347 280.218 269.355" stroke="#FF3A30" stroke-width="2" stroke-miterlimit="10"/>
<path d="M282.701 305.702H282.693C282.693 305.702 282.63 305.71 282.598 305.718C282.582 305.718 282.558 305.718 282.543 305.718C259.057 309.606 228.042 306.329 214.99 304.583L216.156 297.18C224.955 290.595 234.604 285.39 243.688 281.352C257.391 285.184 272.252 292.452 282.201 297.942H282.209L282.431 300.124L282.447 300.457V300.6L282.455 300.64L282.701 305.694V305.702Z" stroke="#FF3A30" stroke-width="2" stroke-miterlimit="10"/>
<path d="M216.133 297.204C216.133 297.204 216.141 297.188 216.149 297.188" stroke="#FF3A30" stroke-width="2" stroke-miterlimit="10"/>
<path d="M280.313 269.331H280.322H280.33" stroke="#FF3A30" stroke-width="2" stroke-miterlimit="10"/>
<path d="M214.974 304.591H214.991" stroke="#FF3A30" stroke-width="2" stroke-miterlimit="10"/>
<path d="M282.75 305.694C282.75 305.694 282.718 305.702 282.702 305.702" stroke="#FF3A30" stroke-width="2" stroke-miterlimit="10"/>
<path d="M226.948 199.565H226.939" stroke="#FF3A30" stroke-width="2" stroke-miterlimit="10"/>
<path d="M279.171 236.967H279.163C274.704 238.252 265.841 240.966 255.439 244.957C255.352 244.988 255.257 245.028 255.162 245.068C250.591 246.821 245.728 248.821 240.809 251.058C234.048 254.121 227.193 257.628 220.878 261.547H220.87" stroke="#FF3A30" stroke-width="2" stroke-miterlimit="10"/>
</svg>
