<svg width="322" height="379" viewBox="0 0 322 379" fill="none" xmlns="http://www.w3.org/2000/svg">
<path opacity="0.25" d="M286.457 336.311L286.128 335.31L285.731 334.087L281.635 321.41L263.494 299.372L284.272 308.183L284.875 308.435L284.982 308.481L285.074 307.961L286.457 336.311Z" fill="#FF3A30"/>
<path opacity="0.25" d="M287.672 368.428H211.188L217.378 306.44L246.492 303.865L252.98 307.755H258.787L263.494 317.077L264.205 339.069L258.749 360.572L267.254 359.289L276.882 360.572L286.938 355.384L287.061 355.323L287.374 355.162L287.664 361.329L287.672 368.428Z" fill="#FF3A30"/>
<path opacity="0.25" d="M293.655 59.8962V115.87L285.578 151.258L278.594 173.189L278.601 173.318L278.655 174.442L279.442 190.695L282.598 274.316L283.163 279.879L282.98 279.909L282.682 279.97L254.546 285.258L251.1 282.966L246.492 283.187L234.518 256.603H234.51V256.595L231.912 250.826H225.134L225.554 246.654L225.837 243.91V243.903L226.907 233.38L226.93 233.174L227.044 232.051L227.579 226.793L228.481 217.968L228.764 215.217L230.773 195.44V176.772L230.766 176.749V175.328L230.483 174.518L230.475 174.495L229.971 173.059L229.948 172.967L229.925 172.898L229.902 172.837L227.037 164.691L226.945 164.424L202.11 132.987L201.912 132.1L195.646 104.339L194.316 80.3983L194.247 79.1604V79.0152L197.564 76.5699L203.845 78.6637L208.621 85.2965L208.629 85.3117L208.743 85.4722L212.732 104.759L215.284 114.181V114.189L215.552 115.167L220.534 119.461L229.566 109.191L232.439 76.5699V24.8907L232.569 24.3558L232.585 24.2947L232.592 24.2488L233.853 18.8692L233.968 18.3802L234.327 16.8595L234.365 16.6838L237.781 14.4907L240.929 15.3083L242.312 17.746L242.32 17.7536L242.564 18.1892L244.971 50.6195V52.0943L245.032 80.9561V81.9571H248.173V11.48L251.329 7.37649L255.57 6.00867L259.452 9.80647L259.719 10.0739L260.804 49.3587L261.698 82.2093L261.721 83.0346L264.274 84.7768L266.474 43.918L266.681 23.6146V23.4618L268.293 18.9075H271.632L275.384 20.6497L276.003 21.9335L276.026 21.987L277.532 25.1047L277.539 25.1658L277.807 25.6701L277.814 25.6854L277.921 29.2846L277.937 30.1022L278.578 51.2996L278.571 51.4372L277.157 93.1366L277.127 94.0154H277.134L277.172 94.0307L279.801 95.0852L283.5 68.5158L283.545 68.2102V68.1872L283.553 68.172L282.812 51.6435L282.758 50.5049V50.4973L282.743 50.3673L284.76 44.6133L288.375 43.811L290.514 45.3011H290.522L290.614 45.3698L293.655 59.8962Z" fill="#FF3A30"/>
<path d="M281.459 250.826H281.452C269.187 242.619 257.801 237.507 248.127 234.328C256.984 231.608 267.75 229.392 280.466 228.62H280.626L281.459 250.826Z" fill="white" stroke="#FF3A30" stroke-width="1.52829" stroke-linecap="round" stroke-linejoin="round"/>
<path d="M282.307 273.315L281.635 255.556" stroke="#FF3A30" stroke-width="1.52829" stroke-linecap="round" stroke-linejoin="round"/>
<path d="M279.603 201.607C270.853 202.18 263.036 203.449 256.143 205.076C244.016 198.833 235.657 192.094 230.491 187.157V182.442C240.287 180.555 258.26 178.698 278.846 183.413H278.854L279.159 189.687L279.61 201.607H279.603Z" fill="white" stroke="#FF3A30" stroke-width="1.52829" stroke-linecap="round" stroke-linejoin="round"/>
<path d="M293.365 58.8876V114.869L285.104 151.059L278.364 171.996L278.303 172.188L278.846 183.413H278.838C258.252 178.698 240.279 180.555 230.483 182.442V174.304L227.961 166.663L227.06 163.935L201.82 131.986L195.348 103.338L193.949 78.0065L194.026 77.953L197.273 75.5612L203.562 77.655L208.453 84.4712L212.64 104.736L215.261 114.166L220.243 118.453L229.276 108.19L232.149 76.5776V23.8897L233.563 16.424L233.654 15.9502L233.677 15.9349L237.483 13.4897L240.631 14.3073L242.274 17.1805L244.681 49.6491L244.742 50.4361V80.9561H247.883V10.4789L251.031 6.36782L255.28 5L259.429 9.06526L261.439 82.0336L263.983 83.7682L266.39 39.1879V22.4531L267.995 17.9064H271.342L275.094 19.6487L277.501 24.0654L278.28 48.9919L278.303 49.6338L276.882 91.5854L276.836 93.0067L279.511 94.0765L283.263 67.1709L283.209 66.0706L282.46 49.3663L282.521 49.1982L284.462 43.6123L288.077 42.8023L290.323 44.3688L293.365 58.8876Z" stroke="#FF3A30" stroke-width="1.52829" stroke-linecap="round" stroke-linejoin="round"/>
<path d="M256.136 205.076C243.963 207.965 234.671 212.015 228.237 215.499C228.221 215.507 228.206 215.514 228.191 215.522L230.483 192.995V187.157C235.649 192.093 244.009 198.833 256.136 205.076Z" fill="white" stroke="#FF3A30" stroke-width="1.52829" stroke-linecap="round" stroke-linejoin="round"/>
<path d="M224.592 250.826L225.264 244.208L226.617 230.935L226.64 230.729L226.754 229.605L227.289 224.348L228.191 215.522L230.483 192.995V187.157V182.442V174.518V174.327L230.476 174.304V174.495V182.442V187.149V191.551L227.541 220.925L226.64 229.437L226.624 229.43L224.454 250.765" stroke="#FF3A30" stroke-width="1.52829" stroke-linecap="round" stroke-linejoin="round"/>
<path d="M217.011 306.471L211.188 368.428" stroke="#FF3A30" stroke-width="1.52829" stroke-linecap="round" stroke-linejoin="round"/>
<path d="M282.98 279.909L282.682 279.97L282.307 273.314L282.98 279.909Z" fill="white" stroke="#FF3A30" stroke-width="1.52829" stroke-linecap="round" stroke-linejoin="round"/>
<path d="M286.128 335.31L285.731 334.087L284.271 308.183L284.875 308.435L286.128 335.31Z" fill="white" stroke="#FF3A30" stroke-width="1.52829" stroke-linecap="round" stroke-linejoin="round"/>
<path d="M287.672 368.428L286.938 355.384L287.06 355.323L287.672 368.428Z" fill="white" stroke="#FF3A30" stroke-width="1.52829" stroke-linecap="round" stroke-linejoin="round"/>
<path d="M281.635 255.556C272.19 257.711 255.455 260.08 234.518 256.603H234.51L231.912 250.826H224.592L225.264 244.208L225.837 243.91C227.556 243.001 229.482 242.023 231.461 241.052C232.195 240.693 232.936 240.334 233.677 239.983C234.709 239.494 235.748 239.012 236.764 238.561C236.91 238.492 237.055 238.431 237.2 238.37C237.49 238.233 237.781 238.11 238.071 237.988C238.43 237.828 238.782 237.682 239.126 237.537C240.172 237.094 241.174 236.697 242.113 236.353C242.48 236.215 242.847 236.085 243.221 235.948C243.221 235.956 243.229 235.948 243.229 235.948C244.009 235.673 244.803 235.398 245.621 235.13C246.033 234.993 246.446 234.863 246.859 234.725C247.271 234.595 247.699 234.458 248.127 234.328C248.754 234.534 249.38 234.748 250.022 234.97C250.534 235.146 251.046 235.329 251.566 235.52C251.742 235.573 251.917 235.642 252.093 235.711C252.636 235.91 253.186 236.116 253.744 236.33C254.386 236.574 255.035 236.827 255.692 237.094C256.342 237.354 257.007 237.629 257.671 237.912C258.336 238.187 259.009 238.477 259.689 238.783C260.361 239.081 261.049 239.387 261.737 239.707C262.424 240.028 263.12 240.357 263.815 240.693C264.511 241.022 265.214 241.373 265.924 241.732C266.329 241.939 266.742 242.145 267.147 242.359C267.636 242.611 268.125 242.871 268.622 243.131C269.111 243.391 269.607 243.658 270.104 243.933C271.48 244.69 272.878 245.477 274.284 246.31C274.758 246.585 275.224 246.868 275.698 247.158C276.011 247.349 276.324 247.54 276.638 247.731C276.958 247.922 277.272 248.121 277.585 248.319C278.219 248.717 278.861 249.114 279.495 249.534C279.763 249.703 280.038 249.878 280.305 250.062C280.688 250.306 281.07 250.558 281.452 250.818H281.459L281.635 255.556Z" fill="white" stroke="#FF3A30" stroke-width="1.52829" stroke-linecap="round" stroke-linejoin="round"/>
<path d="M280.626 228.612H280.466C267.75 229.392 256.984 231.608 248.127 234.328C246.01 234.977 244.008 235.658 242.113 236.353C237.116 238.187 230.231 241.58 225.264 244.208L226.616 230.935L226.639 230.729L226.754 229.605L227.289 224.348L228.191 215.522C228.191 215.522 228.221 215.507 228.236 215.499C234.671 212.015 243.963 207.965 256.135 205.076C263.028 203.449 270.845 202.18 279.595 201.607L280.091 214.697L280.619 228.612H280.626Z" fill="white" stroke="#FF3A30" stroke-width="1.52829" stroke-linecap="round" stroke-linejoin="round"/>
<path d="M230.484 182.442H230.476" stroke="#FF3A30" stroke-width="1.52829" stroke-linecap="round" stroke-linejoin="round"/>
<path d="M280.099 214.697H280.084" stroke="#FF3A30" stroke-width="1.52829" stroke-linecap="round" stroke-linejoin="round"/>
<path d="M230.483 187.158C230.483 187.158 230.483 187.158 230.483 187.15" stroke="#FF3A30" stroke-width="1.52829" stroke-linecap="round" stroke-linejoin="round"/>
<path d="M226.778 229.613C226.778 229.613 226.762 229.613 226.754 229.613" stroke="#FF3A30" stroke-width="1.52829" stroke-linecap="round" stroke-linejoin="round"/>
<path opacity="0.25" d="M240.807 220.917C241.67 217.02 241.418 212.886 240.096 209.119C238.553 204.717 235.527 200.446 236.321 195.846C236.956 192.185 240.272 189.167 243.978 188.892C245.01 188.815 246.11 188.945 246.943 189.557C248.991 191.039 248.563 194.455 250.443 196.136C252.147 197.664 254.837 197.03 256.9 196.044C258.963 195.058 261.148 193.767 263.38 194.264C265.206 194.669 266.597 196.228 267.3 197.955C268.003 199.682 268.125 201.584 268.247 203.449C268.484 207.262 268.668 211.335 266.757 214.644C266.238 215.545 265.558 216.393 265.305 217.41C264.832 219.32 265.986 221.269 267.422 222.621C268.859 223.974 270.601 224.99 271.847 226.503C274.949 230.263 274.124 235.917 272.099 240.349C270.135 244.652 266.956 248.686 262.493 250.253C258.031 251.819 252.254 250.092 250.481 245.714C249.335 242.894 249.724 239.134 247.226 237.392C246.171 236.651 244.834 236.49 243.611 236.085C240.616 235.084 238.385 232.311 237.697 229.262C236.711 224.898 239.974 224.684 240.807 220.91V220.917Z" fill="#FF3A30"/>
<path opacity="0.25" d="M23.239 368.428H99.7224L99.7147 361.321L99.3938 354.582L99.325 353.206L99.2639 351.922L96.2761 290.516V290.5L96.2608 290.179L94.6484 274.308L91.4925 190.688L90.7054 174.434L90.6519 173.311L90.6443 173.181L97.6286 151.25L105.706 115.862V61.3253V59.8887L102.664 45.3623L100.425 43.8034L96.811 44.6058L94.7936 50.3598L94.8089 50.4897V50.4973L94.8624 51.6359L95.6036 68.1644L95.596 68.1797V68.2026L95.5501 68.5083L91.8516 95.0776L89.223 94.0231L89.1848 94.0078H89.1771L90.6214 51.4296L90.629 51.292L89.9871 30.0946L89.9718 29.277L89.8649 25.6779L89.8572 25.6626L88.0768 21.9794L88.0538 21.9259L87.4349 20.6421L83.6829 18.8999H80.3436L78.7313 23.4542V23.607L78.5249 43.9104L76.3242 84.7693L73.772 83.027L72.855 49.3511L71.7699 10.0664L67.6206 6.0011L63.3796 7.36892L60.2236 11.4724V12.9166V81.9496H57.083L57.0219 52.0867V50.6119L54.6148 18.1816L52.9795 15.3008L49.8313 14.4831L46.4155 16.6762L46.3773 16.852L46.0182 18.3726L45.9035 18.8617L44.6427 24.2413L44.6351 24.2871L44.6198 24.3482L44.4899 24.8831V26.3274V76.5624L41.6167 109.184L32.5845 119.454L27.6022 115.159L24.7825 104.752L20.7937 85.4647L15.8955 78.6561L9.61425 76.5624L6.29785 79.0076V79.1528L6.36662 80.3907L7.69624 104.331L14.1609 132.979L38.9957 164.416L39.0874 164.684L41.9529 172.829L41.9758 172.891L41.9988 172.959L42.0217 173.051L42.8164 175.321V176.742L42.824 176.765V184.88V189.595V195.433L40.5316 217.96L39.6299 226.786L39.095 232.043L38.9804 233.166L38.9575 233.373L37.6049 246.646L36.5657 256.924L29.8336 302.276L23.239 368.428Z" fill="#FF3A30"/>
<path d="M93.51 250.826H93.5024C81.2378 242.619 69.8521 237.507 60.178 234.328C69.0344 231.608 79.8012 229.392 92.5166 228.62H92.6771L93.51 250.826Z" fill="white" stroke="#FF3A30" stroke-width="1.52829" stroke-linecap="round" stroke-linejoin="round"/>
<path d="M94.3582 273.315L93.6858 255.556" stroke="#FF3A30" stroke-width="1.52829" stroke-linecap="round" stroke-linejoin="round"/>
<path d="M91.6532 201.607C82.9037 202.18 75.0865 203.449 68.1939 205.076C56.0669 198.833 47.7071 192.094 42.5415 187.157V182.442C52.3379 180.555 70.3106 178.698 90.8967 183.413H90.9043L91.21 189.687L91.6608 201.607H91.6532Z" fill="white" stroke="#FF3A30" stroke-width="1.52829" stroke-linecap="round" stroke-linejoin="round"/>
<path d="M105.415 58.8876V114.869L97.155 151.059L90.4152 171.996L90.3541 172.188L90.8966 183.413H90.889C70.3029 178.698 52.3302 180.555 42.5338 182.442V174.304L40.0121 166.663L39.1104 163.935L13.8707 131.986L7.39839 103.338L6 78.0065L6.07641 77.953L9.32404 75.5612L15.613 77.655L20.5035 84.4712L24.691 104.736L27.312 114.166L32.2943 118.453L41.3265 108.19L44.1997 76.5776V23.8897L45.6133 16.424L45.705 15.9502L45.728 15.9349L49.5334 13.4897L52.6817 14.3073L54.3246 17.1805L56.7317 49.6491L56.7928 50.4361V80.9561H59.9334V10.4789L63.0817 6.36782L67.3304 5L71.4797 9.06526L73.4894 82.0336L76.034 83.7682L78.441 39.1879V22.4531L80.0458 17.9064H83.3927L87.1447 19.6487L89.5517 24.0654L90.3312 48.9919L90.3541 49.6338L88.9328 91.5854L88.8869 93.0067L91.5614 94.0765L95.3134 67.1709L95.2599 66.0706L94.511 49.3663L94.5722 49.1982L96.5131 43.6123L100.128 42.8023L102.374 44.3688L105.415 58.8876Z" stroke="#FF3A30" stroke-width="1.52829" stroke-linecap="round" stroke-linejoin="round"/>
<path d="M68.1863 205.076C56.0134 207.965 46.7214 212.015 40.2873 215.499C40.272 215.507 40.2567 215.514 40.2415 215.522L42.5339 192.995V187.157C47.6995 192.093 56.0593 198.833 68.1863 205.076Z" fill="white" stroke="#FF3A30" stroke-width="1.52829" stroke-linecap="round" stroke-linejoin="round"/>
<path d="M36.2756 254.486L37.3148 244.208L38.6674 230.935L38.6903 230.729L38.8049 229.605L39.3398 224.348L40.2415 215.522L42.5339 192.995V187.157V182.442V174.327L42.5263 174.304V191.551L39.592 220.925L38.6903 229.437L38.675 229.43L34.6785 268.776L29.5435 301.336L23.2393 368.428" stroke="#FF3A30" stroke-width="1.52829" stroke-linecap="round" stroke-linejoin="round"/>
<path d="M99.7225 368.428L96.0775 290.263L94.3582 273.314" fill="white"/>
<path d="M99.7225 368.428L96.0775 290.263L94.3582 273.314" stroke="#FF3A30" stroke-width="1.52829" stroke-linecap="round" stroke-linejoin="round"/>
<path d="M93.6859 255.556C82.751 258.055 62.0426 260.828 36.3521 254.509C36.3521 254.509 36.3215 254.501 36.2756 254.486L37.3149 244.208C42.2818 241.58 49.1668 238.187 54.1643 236.353C56.0594 235.658 58.0614 234.977 60.1781 234.328C69.8522 237.507 81.238 242.619 93.5025 250.818H93.5102L93.6859 255.556Z" fill="white" stroke="#FF3A30" stroke-width="1.52829" stroke-linecap="round" stroke-linejoin="round"/>
<path d="M92.6771 228.612H92.5166C79.8012 229.392 69.0344 231.608 60.1779 234.328C58.0613 234.977 56.0592 235.658 54.1641 236.353C49.1666 238.187 42.2816 241.58 37.3147 244.208L38.6672 230.935L38.6902 230.729L38.8048 229.605L39.3397 224.348L40.2414 215.522C40.2414 215.522 40.2719 215.507 40.2872 215.499C46.7213 212.015 56.0134 207.965 68.1862 205.076C75.0788 203.449 82.896 202.18 91.6455 201.607L92.1422 214.697L92.6694 228.612H92.6771Z" fill="white" stroke="#FF3A30" stroke-width="1.52829" stroke-linecap="round" stroke-linejoin="round"/>
<path d="M42.5341 182.442H42.5261" stroke="#FF3A30" stroke-width="1.52829" stroke-linecap="round" stroke-linejoin="round"/>
<path d="M92.1498 214.697H92.1345" stroke="#FF3A30" stroke-width="1.52829" stroke-linecap="round" stroke-linejoin="round"/>
<path d="M42.5339 187.158C42.5339 187.158 42.5339 187.158 42.5339 187.15" stroke="#FF3A30" stroke-width="1.52829" stroke-linecap="round" stroke-linejoin="round"/>
<path d="M38.8285 229.613C38.8285 229.613 38.8126 229.613 38.8047 229.613" stroke="#FF3A30" stroke-width="1.52829" stroke-linecap="round" stroke-linejoin="round"/>
<path opacity="0.25" d="M52.8574 220.917C53.7209 217.02 53.4688 212.886 52.1468 209.119C50.6032 204.717 47.5772 200.446 48.3719 195.846C49.0062 192.185 52.3225 189.167 56.0287 188.892C57.0603 188.815 58.1606 188.945 58.9935 189.557C61.0414 191.039 60.6135 194.455 62.4933 196.136C64.1974 197.664 66.8872 197.03 68.9504 196.044C71.0136 195.058 73.199 193.767 75.4303 194.264C77.2566 194.669 78.6474 196.228 79.3504 197.955C80.0534 199.682 80.1757 201.584 80.2979 203.449C80.5348 207.262 80.7182 211.335 78.8078 214.644C78.2882 215.545 77.6081 216.393 77.356 217.41C76.8822 219.32 78.0361 221.269 79.4727 222.621C80.9093 223.974 82.6515 224.99 83.8971 226.503C86.9995 230.263 86.1742 235.917 84.1492 240.349C82.1854 244.652 79.0065 248.686 74.5439 250.253C70.0813 251.819 64.3044 250.092 62.5315 245.714C61.3853 242.894 61.775 239.134 59.2763 237.392C58.2218 236.651 56.8845 236.49 55.6619 236.085C52.6664 235.084 50.4351 232.311 49.7474 229.262C48.7616 224.898 52.0245 224.684 52.8574 220.91V220.917Z" fill="#FF3A30"/>
<path d="M99.7224 293.121L97.0326 308.481L75.5448 299.372L58.0994 289.889L65.9319 285.38L97.0326 279.535L99.7224 293.121Z" fill="white" stroke="#FF3A30" stroke-width="1.52829" stroke-linecap="round" stroke-linejoin="round"/>
<path d="M75.545 299.372L67.6819 303.055L29.0543 306.471L27.6101 304.698L28.6264 286.313L31.2933 277.311H34.9688L58.0995 289.889L75.545 299.372Z" fill="white" stroke="#FF3A30" stroke-width="1.52829" stroke-linecap="round" stroke-linejoin="round"/>
<path d="M287.565 292.571H256.35L254.546 285.258L282.682 279.97L282.98 279.909L283.163 279.879L284.982 279.535L287.565 292.571Z" fill="white" stroke="#FF3A30" stroke-width="1.52829" stroke-linecap="round" stroke-linejoin="round"/>
<path d="M286.579 299.372L285.074 307.961L284.982 308.481L284.875 308.435L284.271 308.183L263.494 299.372H286.579Z" fill="white" stroke="#FF3A30" stroke-width="1.52829" stroke-linecap="round" stroke-linejoin="round"/>
<path d="M246.492 303.865L217.378 306.44L217.011 306.471H217.004L215.559 304.698L215.857 299.372H246.118L246.492 303.865Z" fill="white" stroke="#FF3A30" stroke-width="1.52829" stroke-linecap="round" stroke-linejoin="round"/>
<path d="M244.123 292.571H216.232L216.576 286.313L217.959 281.636L220.404 282.867L220.649 282.989L229.689 287.535H241.724V289.003L244.123 292.571Z" fill="white" stroke="#FF3A30" stroke-width="1.52829" stroke-linecap="round" stroke-linejoin="round"/>
<path d="M73.9632 283.867C73.9632 283.867 89.0551 250.375 108.273 232.371L116.289 231.309L127.484 233.579L138.832 233.273C138.832 233.273 99.8372 259.789 87.0301 281.407L73.9556 283.867H73.9632Z" fill="white" stroke="#FF3A30" stroke-width="1.52829" stroke-linecap="round" stroke-linejoin="round"/>
<path d="M44.4749 305.103C44.4749 305.103 25.6692 324.382 16.9351 361.795L20.5648 372.34H27.6178L35.6108 367.366L55.0889 374.35C55.0889 374.35 38.0561 344.755 56.854 304.003L44.4749 305.095V305.103Z" fill="white" stroke="#FF3A30" stroke-width="1.52829" stroke-linecap="round" stroke-linejoin="round"/>
<path d="M246.118 299.372H197.258C196.058 299.372 195.088 298.401 195.088 297.209V294.741C195.088 293.542 196.058 292.571 197.258 292.571H244.123L245.751 294.993L246.118 299.372Z" fill="white" stroke="#231F20" stroke-width="1.52829" stroke-linecap="round" stroke-linejoin="round"/>
<path d="M246.492 283.188L243.948 283.31L243.512 284.135L241.724 287.536H229.689L220.649 282.989L220.404 282.867L217.959 281.636L189.968 267.553L204.349 258.376L208.117 248.893L214.795 246.356L224.454 250.765L224.592 250.826H231.912L234.51 256.595V256.603H234.518L246.492 283.188Z" fill="white" stroke="#FF3A30" stroke-width="1.52829" stroke-linecap="round" stroke-linejoin="round"/>
<path d="M291.806 352.87L287.374 355.162L287.06 355.323L286.938 355.384L276.882 360.573L267.254 359.289L258.749 360.573L264.205 339.069L263.494 317.077L258.787 307.755L259.475 305.287L258.023 299.372H263.494L281.635 321.41L285.731 334.087L286.128 335.31L286.457 336.311L291.806 352.87Z" fill="white" stroke="#FF3A30" stroke-width="1.52829" stroke-linecap="round" stroke-linejoin="round"/>
<path d="M305.691 294.741V297.209C305.691 298.401 304.72 299.372 303.528 299.372H258.023L256.35 292.571H303.528C304.72 292.571 305.691 293.542 305.691 294.741Z" fill="white" stroke="#231F20" stroke-width="1.52829" stroke-linecap="round" stroke-linejoin="round"/>
<path d="M310.581 285.61C310.581 285.61 324.466 294.703 310.581 306.272L310.994 302.803" stroke="#231F20" stroke-width="1.52829" stroke-linecap="round" stroke-linejoin="round"/>
<path d="M310.581 306.272L313.668 306.769" stroke="#231F20" stroke-width="1.52829" stroke-linecap="round" stroke-linejoin="round"/>
<path d="M189.999 306.769C189.999 306.769 176.114 297.676 189.999 286.106L189.586 289.576" stroke="#231F20" stroke-width="1.52829" stroke-linecap="round" stroke-linejoin="round"/>
<path d="M189.999 286.099L186.912 285.61" stroke="#231F20" stroke-width="1.52829" stroke-linecap="round" stroke-linejoin="round"/>
<path d="M259.475 305.287L258.787 307.755H252.98L246.492 303.865L246.118 299.372L245.751 294.993L244.123 292.571L241.724 289.003V287.535L243.512 284.135L243.948 283.31L246.492 283.187L251.1 282.966L254.546 285.258L256.35 292.571L258.023 299.372L259.475 305.287Z" fill="white" stroke="#FF3A30" stroke-width="1.52829" stroke-linecap="round" stroke-linejoin="round"/>
<path d="M244.284 283.547L251.879 289.637" stroke="#FF3A30" stroke-width="1.52829" stroke-linecap="round" stroke-linejoin="round"/>
<path d="M256.923 307.166L254.653 301.13" stroke="#FF3A30" stroke-width="1.52829" stroke-linecap="round" stroke-linejoin="round"/>
</svg>
