<svg width="278" height="379" viewBox="0 0 278 379" fill="none" xmlns="http://www.w3.org/2000/svg">
<g clip-path="url(#clip0_172_2)">
<path opacity="0.25" d="M33.67 96.6399H245.73C252.72 96.6399 258.4 102.32 258.4 109.31V269.14C258.4 276.13 252.72 281.81 245.73 281.81H33.67C26.68 281.81 21 276.13 21 269.14V109.31C21 102.32 26.68 96.6399 33.67 96.6399Z" fill="#FF3A30" stroke="#EF4037" stroke-width="2" stroke-miterlimit="10"/>
<path d="M185.41 79.27V96.94H172.73V79.94C172.73 75.74 169.33 72.34 165.13 72.34H114.35C110.16 72.34 106.75 75.74 106.75 79.94V96.94H93.8999V79.27C93.8999 68.07 102.98 59 114.17 59H165.14C176.33 59 185.41 68.07 185.41 79.27Z" fill="white" stroke="#EF4037" stroke-width="2" stroke-linecap="round" stroke-linejoin="round"/>
<path d="M67.4601 96.6399H44.8601V282.1H67.4601V96.6399Z" fill="white"/>
<path d="M234.54 96.6399H211.94V282.1H234.54V96.6399Z" fill="white"/>
<path d="M33.7401 96.9399H245.8C252.79 96.9399 258.47 102.62 258.47 109.61V269.44C258.47 276.43 252.79 282.11 245.8 282.11H33.7401C26.7501 282.11 21.0701 276.43 21.0701 269.44V109.61C21.0701 102.62 26.7501 96.9399 33.7401 96.9399Z" stroke="#EF4037" stroke-width="2" stroke-linecap="round" stroke-linejoin="round"/>
<path d="M181.95 180.65V198.21H148.42V229.83H130.77V198.21H97.3201V180.65H130.77V149.03H148.42V180.65H181.95Z" fill="white"/>
<path d="M66.63 92.98H45.69C44.8726 92.98 44.21 93.6426 44.21 94.46V95.16C44.21 95.9774 44.8726 96.64 45.69 96.64H66.63C67.4473 96.64 68.11 95.9774 68.11 95.16V94.46C68.11 93.6426 67.4473 92.98 66.63 92.98Z" fill="white" stroke="#EF4037" stroke-width="2" stroke-miterlimit="10"/>
<path d="M233.71 92.98H212.77C211.953 92.98 211.29 93.6426 211.29 94.46V95.16C211.29 95.9774 211.953 96.64 212.77 96.64H233.71C234.527 96.64 235.19 95.9774 235.19 95.16V94.46C235.19 93.6426 234.527 92.98 233.71 92.98Z" fill="white" stroke="#EF4037" stroke-width="2" stroke-miterlimit="10"/>
</g>
<path d="M50.2022 312.818H47.3531V311.668H50.2022C50.754 311.668 51.2008 311.58 51.5426 311.404C51.8844 311.229 52.1334 310.984 52.2896 310.672C52.4508 310.359 52.5313 310.003 52.5313 309.603C52.5313 309.236 52.4508 308.892 52.2896 308.57C52.1334 308.248 51.8844 307.989 51.5426 307.793C51.2008 307.593 50.754 307.493 50.2022 307.493H47.6827V317H46.2691V306.336H50.2022C51.0079 306.336 51.6891 306.475 52.2457 306.753C52.8023 307.032 53.2247 307.417 53.5128 307.911C53.8009 308.399 53.9449 308.958 53.9449 309.588C53.9449 310.271 53.8009 310.855 53.5128 311.338C53.2247 311.822 52.8023 312.19 52.2457 312.444C51.6891 312.693 51.0079 312.818 50.2022 312.818ZM61.5993 315.85V317H56.2673V315.85H61.5993ZM56.5456 306.336V317H55.132V306.336H56.5456ZM66.7122 307.281L63.1819 317H61.7391L65.804 306.336H66.7342L66.7122 307.281ZM69.6712 317L66.1336 307.281L66.1116 306.336H67.0418L71.1214 317H69.6712ZM69.4881 313.052V314.209H63.4969V313.052H69.4881ZM78.2997 313.609H79.706C79.6327 314.283 79.4398 314.886 79.1273 315.418C78.8148 315.95 78.373 316.373 77.8017 316.685C77.2304 316.993 76.5175 317.146 75.663 317.146C75.038 317.146 74.4691 317.029 73.9564 316.795C73.4486 316.561 73.0116 316.229 72.6454 315.799C72.2792 315.364 71.996 314.844 71.7958 314.239C71.6005 313.628 71.5028 312.95 71.5028 312.203V311.141C71.5028 310.394 71.6005 309.717 71.7958 309.112C71.996 308.501 72.2816 307.979 72.6527 307.544C73.0287 307.11 73.4804 306.775 74.0077 306.541C74.5351 306.307 75.1283 306.189 75.7875 306.189C76.5932 306.189 77.2743 306.341 77.831 306.644C78.3876 306.946 78.8197 307.366 79.1273 307.903C79.4398 308.436 79.6327 309.053 79.706 309.756H78.2997C78.2313 309.258 78.1044 308.831 77.9188 308.475C77.7333 308.113 77.4696 307.835 77.1278 307.64C76.786 307.444 76.3393 307.347 75.7875 307.347C75.3139 307.347 74.8964 307.437 74.5351 307.618C74.1786 307.798 73.8783 308.055 73.6342 308.387C73.3949 308.719 73.2143 309.117 73.0922 309.581C72.9701 310.044 72.9091 310.56 72.9091 311.126V312.203C72.9091 312.725 72.9628 313.216 73.0702 313.675C73.1825 314.134 73.351 314.537 73.5756 314.883C73.8002 315.23 74.0858 315.503 74.4325 315.704C74.7792 315.899 75.1894 315.997 75.663 315.997C76.2636 315.997 76.7421 315.901 77.0985 315.711C77.455 315.521 77.7235 315.247 77.9042 314.891C78.0897 314.534 78.2216 314.107 78.2997 313.609ZM87.8071 315.85V317H82.1602V315.85H87.8071ZM82.4458 306.336V317H81.0322V306.336H82.4458ZM87.0601 310.921V312.071H82.1602V310.921H87.0601ZM87.7339 306.336V307.493H82.1602V306.336H87.7339ZM95.923 310.921V312.071H90.1515V310.921H95.923ZM90.3712 306.336V317H88.9576V306.336H90.3712ZM97.1534 306.336V317H95.7472V306.336H97.1534ZM107.276 311.331V312.005C107.276 312.806 107.176 313.523 106.976 314.158C106.776 314.793 106.488 315.333 106.112 315.777C105.736 316.221 105.284 316.561 104.757 316.795C104.234 317.029 103.648 317.146 102.999 317.146C102.369 317.146 101.79 317.029 101.263 316.795C100.74 316.561 100.286 316.221 99.9006 315.777C99.5197 315.333 99.2243 314.793 99.0144 314.158C98.8044 313.523 98.6994 312.806 98.6994 312.005V311.331C98.6994 310.53 98.802 309.815 99.007 309.185C99.217 308.55 99.5124 308.011 99.8933 307.566C100.274 307.117 100.726 306.775 101.248 306.541C101.776 306.307 102.354 306.189 102.984 306.189C103.633 306.189 104.219 306.307 104.742 306.541C105.269 306.775 105.721 307.117 106.097 307.566C106.478 308.011 106.768 308.55 106.968 309.185C107.174 309.815 107.276 310.53 107.276 311.331ZM105.877 312.005V311.316C105.877 310.682 105.811 310.12 105.679 309.632C105.552 309.144 105.364 308.733 105.115 308.401C104.866 308.069 104.561 307.818 104.2 307.647C103.843 307.476 103.438 307.391 102.984 307.391C102.545 307.391 102.147 307.476 101.79 307.647C101.439 307.818 101.136 308.069 100.882 308.401C100.633 308.733 100.44 309.144 100.303 309.632C100.167 310.12 100.098 310.682 100.098 311.316V312.005C100.098 312.645 100.167 313.211 100.303 313.704C100.44 314.192 100.635 314.605 100.889 314.942C101.148 315.274 101.453 315.525 101.805 315.696C102.161 315.867 102.559 315.953 102.999 315.953C103.458 315.953 103.865 315.867 104.222 315.696C104.578 315.525 104.879 315.274 105.123 314.942C105.372 314.605 105.56 314.192 105.687 313.704C105.814 313.211 105.877 312.645 105.877 312.005ZM115.26 315.85V317H109.928V315.85H115.26ZM110.206 306.336V317H108.793V306.336H110.206ZM119.164 317H116.938L116.953 315.85H119.164C119.926 315.85 120.561 315.691 121.069 315.374C121.577 315.052 121.957 314.603 122.211 314.026C122.47 313.445 122.6 312.767 122.6 311.99V311.338C122.6 310.728 122.526 310.186 122.38 309.712C122.233 309.234 122.018 308.831 121.735 308.504C121.452 308.172 121.105 307.92 120.695 307.75C120.29 307.579 119.824 307.493 119.296 307.493H116.894V306.336H119.296C119.995 306.336 120.632 306.453 121.208 306.688C121.784 306.917 122.28 307.251 122.695 307.691C123.115 308.125 123.437 308.653 123.662 309.273C123.886 309.888 123.998 310.582 123.998 311.353V311.99C123.998 312.762 123.886 313.458 123.662 314.078C123.437 314.693 123.112 315.218 122.687 315.652C122.267 316.087 121.76 316.421 121.164 316.656C120.573 316.885 119.907 317 119.164 317ZM117.692 306.336V317H116.279V306.336H117.692ZM132.297 315.85V317H126.65V315.85H132.297ZM126.936 306.336V317H125.522V306.336H126.936ZM131.55 310.921V312.071H126.65V310.921H131.55ZM132.224 306.336V307.493H126.65V306.336H132.224ZM133.448 306.336H136.978C137.779 306.336 138.455 306.458 139.007 306.702C139.564 306.946 139.986 307.308 140.274 307.786C140.567 308.26 140.713 308.843 140.713 309.537C140.713 310.025 140.613 310.472 140.413 310.877C140.218 311.277 139.935 311.619 139.564 311.902C139.197 312.181 138.758 312.388 138.245 312.525L137.85 312.679H134.532L134.517 311.529H137.022C137.53 311.529 137.952 311.441 138.289 311.265C138.626 311.084 138.88 310.843 139.051 310.54C139.222 310.237 139.307 309.903 139.307 309.537C139.307 309.126 139.227 308.768 139.066 308.46C138.904 308.152 138.65 307.916 138.304 307.75C137.962 307.579 137.52 307.493 136.978 307.493H134.861V317H133.448V306.336ZM139.681 317L137.088 312.166L138.56 312.159L141.19 316.912V317H139.681ZM146.728 306.336V317H145.314V306.336H146.728ZM155.166 315.85V317H149.834V315.85H155.166ZM150.112 306.336V317H148.699V306.336H150.112ZM162.652 315.85V317H157.32V315.85H162.652ZM157.598 306.336V317H156.185V306.336H157.598ZM169.376 306.336H170.782V313.55C170.782 314.351 170.604 315.018 170.248 315.55C169.891 316.082 169.418 316.482 168.827 316.751C168.241 317.015 167.604 317.146 166.915 317.146C166.192 317.146 165.538 317.015 164.952 316.751C164.371 316.482 163.91 316.082 163.568 315.55C163.231 315.018 163.063 314.351 163.063 313.55V306.336H164.462V313.55C164.462 314.107 164.564 314.566 164.769 314.927C164.974 315.289 165.26 315.557 165.626 315.733C165.997 315.909 166.427 315.997 166.915 315.997C167.408 315.997 167.838 315.909 168.204 315.733C168.575 315.557 168.863 315.289 169.068 314.927C169.274 314.566 169.376 314.107 169.376 313.55V306.336ZM178.085 314.305C178.085 314.056 178.046 313.836 177.968 313.646C177.895 313.45 177.763 313.274 177.572 313.118C177.387 312.962 177.128 312.813 176.796 312.671C176.469 312.53 176.054 312.386 175.551 312.239C175.024 312.083 174.548 311.91 174.123 311.719C173.698 311.524 173.334 311.302 173.031 311.053C172.729 310.804 172.497 310.518 172.336 310.196C172.175 309.874 172.094 309.505 172.094 309.09C172.094 308.675 172.179 308.292 172.35 307.94C172.521 307.588 172.765 307.283 173.083 307.024C173.405 306.761 173.788 306.556 174.233 306.409C174.677 306.263 175.173 306.189 175.719 306.189C176.52 306.189 177.199 306.343 177.756 306.651C178.317 306.954 178.744 307.352 179.037 307.845C179.33 308.333 179.477 308.855 179.477 309.412H178.071C178.071 309.012 177.985 308.658 177.814 308.35C177.643 308.038 177.384 307.793 177.038 307.618C176.691 307.437 176.252 307.347 175.719 307.347C175.217 307.347 174.801 307.422 174.474 307.574C174.147 307.725 173.903 307.93 173.742 308.189C173.586 308.448 173.508 308.743 173.508 309.075C173.508 309.3 173.554 309.505 173.647 309.69C173.744 309.871 173.893 310.04 174.093 310.196C174.299 310.352 174.557 310.496 174.87 310.628C175.187 310.76 175.566 310.887 176.005 311.009C176.611 311.18 177.133 311.37 177.572 311.58C178.012 311.79 178.373 312.027 178.656 312.291C178.945 312.549 179.157 312.845 179.294 313.177C179.435 313.504 179.506 313.875 179.506 314.29C179.506 314.725 179.418 315.118 179.242 315.469C179.067 315.821 178.815 316.121 178.488 316.37C178.161 316.619 177.768 316.812 177.309 316.949C176.855 317.081 176.347 317.146 175.785 317.146C175.292 317.146 174.806 317.078 174.328 316.941C173.854 316.805 173.422 316.6 173.031 316.326C172.646 316.053 172.336 315.716 172.101 315.315C171.872 314.91 171.757 314.441 171.757 313.909H173.163C173.163 314.275 173.234 314.59 173.376 314.854C173.517 315.113 173.71 315.328 173.954 315.499C174.203 315.669 174.484 315.796 174.797 315.879C175.114 315.958 175.444 315.997 175.785 315.997C176.279 315.997 176.696 315.928 177.038 315.792C177.38 315.655 177.638 315.459 177.814 315.206C177.995 314.952 178.085 314.651 178.085 314.305ZM184.648 306.336V317H183.257V306.336H184.648ZM188.076 306.336V307.493H179.836V306.336H188.076ZM189.058 306.336H192.588C193.389 306.336 194.065 306.458 194.617 306.702C195.174 306.946 195.596 307.308 195.884 307.786C196.177 308.26 196.324 308.843 196.324 309.537C196.324 310.025 196.224 310.472 196.023 310.877C195.828 311.277 195.545 311.619 195.174 311.902C194.808 312.181 194.368 312.388 193.855 312.525L193.46 312.679H190.142L190.127 311.529H192.632C193.14 311.529 193.562 311.441 193.899 311.265C194.236 311.084 194.49 310.843 194.661 310.54C194.832 310.237 194.917 309.903 194.917 309.537C194.917 309.126 194.837 308.768 194.676 308.46C194.515 308.152 194.261 307.916 193.914 307.75C193.572 307.579 193.13 307.493 192.588 307.493H190.472V317H189.058V306.336ZM195.291 317L192.698 312.166L194.17 312.159L196.8 316.912V317H195.291ZM201.649 307.281L198.119 317H196.676L200.741 306.336H201.671L201.649 307.281ZM204.608 317L201.07 307.281L201.048 306.336H201.979L206.058 317H204.608ZM204.425 313.052V314.209H198.434V313.052H204.425ZM209.875 306.336V317H208.483V306.336H209.875ZM213.302 306.336V307.493H205.063V306.336H213.302ZM215.8 306.336V317H214.387V306.336H215.8ZM225.982 311.331V312.005C225.982 312.806 225.882 313.523 225.681 314.158C225.481 314.793 225.193 315.333 224.817 315.777C224.441 316.221 223.99 316.561 223.462 316.795C222.94 317.029 222.354 317.146 221.704 317.146C221.075 317.146 220.496 317.029 219.969 316.795C219.446 316.561 218.992 316.221 218.606 315.777C218.225 315.333 217.93 314.793 217.72 314.158C217.51 313.523 217.405 312.806 217.405 312.005V311.331C217.405 310.53 217.508 309.815 217.713 309.185C217.923 308.55 218.218 308.011 218.599 307.566C218.98 307.117 219.431 306.775 219.954 306.541C220.481 306.307 221.06 306.189 221.69 306.189C222.339 306.189 222.925 306.307 223.448 306.541C223.975 306.775 224.427 307.117 224.803 307.566C225.183 308.011 225.474 308.55 225.674 309.185C225.879 309.815 225.982 310.53 225.982 311.331ZM224.583 312.005V311.316C224.583 310.682 224.517 310.12 224.385 309.632C224.258 309.144 224.07 308.733 223.821 308.401C223.572 308.069 223.267 307.818 222.906 307.647C222.549 307.476 222.144 307.391 221.69 307.391C221.25 307.391 220.852 307.476 220.496 307.647C220.144 307.818 219.842 308.069 219.588 308.401C219.339 308.733 219.146 309.144 219.009 309.632C218.872 310.12 218.804 310.682 218.804 311.316V312.005C218.804 312.645 218.872 313.211 219.009 313.704C219.146 314.192 219.341 314.605 219.595 314.942C219.854 315.274 220.159 315.525 220.511 315.696C220.867 315.867 221.265 315.953 221.704 315.953C222.163 315.953 222.571 315.867 222.928 315.696C223.284 315.525 223.584 315.274 223.828 314.942C224.077 314.605 224.265 314.192 224.392 313.704C224.519 313.211 224.583 312.645 224.583 312.005ZM235.702 306.336V317H234.281L228.912 308.775V317H227.498V306.336H228.912L234.303 314.583V306.336H235.702Z" fill="#F8C7C4"/>
<defs>
<clipPath id="clip0_172_2">
<rect width="239.46" height="225.1" fill="white" transform="translate(20 58)"/>
</clipPath>
</defs>
</svg>
