<svg width="9" height="14" viewBox="0 0 9 14" fill="none" xmlns="http://www.w3.org/2000/svg">
<g clip-path="url(#clip0_127_21)">
<path d="M1.11742 2.15103L6.2511 7L1.11742 11.8489L1.11736 11.8489L1.11448 11.8518C0.983655 11.986 0.9 12.1626 0.9 12.3709C0.9 12.7896 1.23511 13.1 1.65132 13.1C1.86204 13.1 2.04461 13.0286 2.1928 12.8856C2.19293 12.8855 2.19307 12.8854 2.1932 12.8852L7.86108 7.52888L7.86109 7.52888L7.86185 7.52814C8.01429 7.38099 8.1 7.20393 8.1 7C8.1 6.79779 8.01565 6.61275 7.86053 6.47056L2.19245 1.10709L2.19246 1.10708L2.19111 1.10584C2.04353 0.971239 1.86192 0.9 1.65132 0.9C1.23512 0.9 0.9 1.21039 0.9 1.62903C0.9 1.82996 0.983228 2.01346 1.11447 2.14813L1.11441 2.14819L1.11742 2.15103Z" fill="#C5C5C7" stroke="#C5C5C7" stroke-width="0.2"/>
</g>
<defs>
<clipPath id="clip0_127_21">
<rect width="9" height="14" fill="white"/>
</clipPath>
</defs>
</svg>
