<svg width="65" height="65" viewBox="0 0 65 65" fill="none" xmlns="http://www.w3.org/2000/svg">
<circle cx="32.4963" cy="32.4963" r="31.4963" fill="white"/>
<path d="M41.1415 22.4857L41.1413 22.4855C40.8161 22.1877 40.4523 22.0632 40.1054 22.0826C39.7622 22.1019 39.454 22.2609 39.2336 22.4966C39.0131 22.7323 38.8748 23.0508 38.879 23.3958C38.8833 23.7444 39.0328 24.1007 39.3534 24.4088L39.3533 24.4088L39.3573 24.4124C41.4981 26.3781 42.821 29.1938 42.8337 32.3547C42.846 38.3438 38.0723 43.1369 32.128 43.1369C26.1847 43.1369 21.4356 38.3445 21.4353 32.3543C21.448 29.1675 22.7711 26.3647 24.8994 24.399L24.8994 24.399L24.9028 24.3957C25.226 24.0851 25.3775 23.7275 25.3825 23.3779C25.3875 23.0317 25.2484 22.7131 25.0267 22.4781C24.805 22.2431 24.4954 22.0858 24.1516 22.0678C23.8043 22.0497 23.4401 22.1747 23.115 22.4723C20.5864 24.7813 18.7656 28.3033 18.7656 32.3538C18.7656 39.7014 24.8281 45.8092 32.128 45.8092C39.4411 45.8092 45.4905 39.7013 45.4905 32.3538C45.4905 28.3026 43.6562 24.7939 41.1415 22.4857ZM32.128 32.4586C32.4968 32.4586 32.8207 32.3218 33.0515 32.0772C33.2812 31.8336 33.405 31.4981 33.405 31.1224V19.4827C33.405 19.1015 33.2818 18.7652 33.0508 18.5224C32.819 18.2787 32.4948 18.1466 32.128 18.1466C31.7609 18.1466 31.4391 18.279 31.2102 18.5239C30.9827 18.7674 30.8639 19.1035 30.8639 19.4827V31.1224C30.8639 31.4961 30.9832 31.8314 31.2096 32.0757C31.4374 32.3215 31.7589 32.4586 32.128 32.4586Z" fill="#FF0000" stroke="#FF0000" stroke-width="0.468858"/>
</svg>
