<svg width="65" height="65" viewBox="0 0 65 65" fill="none" xmlns="http://www.w3.org/2000/svg">
<circle cx="32.4963" cy="32.4963" r="31.4963" fill="#FF3A30"/>
<path d="M19.2566 42.2866C17.9466 42.2866 16.8459 42.0591 15.9544 41.6043C15.0629 41.1403 14.3806 40.4899 13.9076 39.653C13.4345 38.816 13.1798 37.8199 13.1434 36.6646V36.2143H16.9369L16.9505 36.6646C16.9869 37.1558 17.1006 37.5698 17.2917 37.9063C17.4827 38.2338 17.742 38.484 18.0695 38.6568C18.406 38.8206 18.7927 38.9025 19.2293 38.9025C19.666 38.9025 20.0344 38.8251 20.3346 38.6705C20.6439 38.5067 20.8804 38.2793 21.0442 37.9882C21.2079 37.6971 21.2898 37.356 21.2898 36.9648V36.9375C21.2898 36.3371 21.1033 35.8186 20.7303 35.3819C20.3574 34.9362 19.6887 34.4586 18.7244 33.9491L17.3053 33.2123C16.0044 32.5573 15.0174 31.7886 14.3442 30.9062C13.6801 30.0147 13.3481 28.9003 13.3481 27.563V27.5357C13.3481 26.4441 13.5892 25.4844 14.0713 24.6565C14.5626 23.8287 15.2494 23.1828 16.1318 22.7189C17.0142 22.2549 18.0558 22.023 19.2566 22.023C20.5211 22.023 21.5764 22.2595 22.4224 22.7325C23.2684 23.1965 23.9097 23.8469 24.3464 24.6838C24.7831 25.5208 25.015 26.4896 25.0423 27.5903L25.056 28.0952H21.2625L21.2489 27.6449C21.2307 27.1537 21.1397 26.7443 20.976 26.4168C20.8213 26.0802 20.5984 25.8255 20.3073 25.6527C20.0253 25.4798 19.6796 25.3934 19.2703 25.3934C18.8791 25.4025 18.538 25.4889 18.2468 25.6527C17.9648 25.8164 17.7465 26.0438 17.5919 26.3349C17.4463 26.626 17.3735 26.9626 17.3735 27.3447V27.3584C17.3735 27.9315 17.5464 28.4227 17.8921 28.8321C18.2378 29.2414 18.8154 29.6554 19.625 30.0738L21.0578 30.797C22.0858 31.3428 22.9136 31.8932 23.5413 32.4481C24.169 33.0031 24.6193 33.6171 24.8922 34.2903C25.1742 34.9544 25.3152 35.7231 25.3152 36.5964V36.6237C25.3152 37.779 25.0696 38.7797 24.5784 39.6257C24.0962 40.4717 23.4003 41.1267 22.4906 41.5906C21.5809 42.0546 20.5029 42.2866 19.2566 42.2866ZM32.4393 42.2866C30.9474 42.2866 29.692 41.9045 28.6731 41.1403C27.6633 40.3671 26.8947 39.23 26.367 37.729C25.8485 36.2279 25.5892 34.3767 25.5892 32.1752V32.1479C25.5892 29.9556 25.8485 28.1089 26.367 26.6079C26.8947 25.1068 27.6633 23.9697 28.6731 23.1965C29.692 22.4141 30.9474 22.023 32.4393 22.023C33.9221 22.023 35.1729 22.4141 36.1918 23.1965C37.2107 23.9697 37.9794 25.1068 38.4979 26.6079C39.0164 28.1089 39.2757 29.9556 39.2757 32.1479V32.1752C39.2757 34.3767 39.0164 36.2279 38.4979 37.729C37.9794 39.23 37.2107 40.3671 36.1918 41.1403C35.1729 41.9045 33.9221 42.2866 32.4393 42.2866ZM32.4393 38.7524C33.0397 38.7524 33.54 38.5204 33.9403 38.0564C34.3497 37.5925 34.6544 36.8784 34.8545 35.9141C35.0638 34.9407 35.1684 33.6944 35.1684 32.1752V32.1479C35.1684 30.6287 35.0638 29.387 34.8545 28.4227C34.6544 27.4493 34.3497 26.7307 33.9403 26.2667C33.5309 25.7937 33.0306 25.5571 32.4393 25.5571C31.8389 25.5571 31.334 25.7937 30.9246 26.2667C30.5244 26.7307 30.2196 27.4493 30.0104 28.4227C29.8011 29.387 29.6965 30.6287 29.6965 32.1479V32.1752C29.6965 33.7035 29.8011 34.9498 30.0104 35.9141C30.2196 36.8784 30.5244 37.5925 30.9246 38.0564C31.3249 38.5204 31.8298 38.7524 32.4393 38.7524ZM45.7038 42.2866C44.3938 42.2866 43.2931 42.0591 42.4016 41.6043C41.5101 41.1403 40.8278 40.4899 40.3548 39.653C39.8817 38.816 39.627 37.8199 39.5906 36.6646V36.2143H43.3841L43.3977 36.6646C43.4341 37.1558 43.5478 37.5698 43.7389 37.9063C43.9299 38.2338 44.1892 38.484 44.5167 38.6568C44.8532 38.8206 45.2399 38.9025 45.6765 38.9025C46.1132 38.9025 46.4816 38.8251 46.7818 38.6705C47.0911 38.5067 47.3276 38.2793 47.4914 37.9882C47.6551 37.6971 47.737 37.356 47.737 36.9648V36.9375C47.737 36.3371 47.5505 35.8186 47.1775 35.3819C46.8046 34.9362 46.1359 34.4586 45.1716 33.9491L43.7525 33.2123C42.4516 32.5573 41.4646 31.7886 40.7914 30.9062C40.1273 30.0147 39.7953 28.9003 39.7953 27.563V27.5357C39.7953 26.4441 40.0364 25.4844 40.5185 24.6565C41.0098 23.8287 41.6966 23.1828 42.579 22.7189C43.4614 22.2549 44.503 22.023 45.7038 22.023C46.9683 22.023 48.0236 22.2595 48.8696 22.7325C49.7156 23.1965 50.3569 23.8469 50.7936 24.6838C51.2303 25.5208 51.4622 26.4896 51.4895 27.5903L51.5032 28.0952H47.7097L47.6961 27.6449C47.6779 27.1537 47.5869 26.7443 47.4232 26.4168C47.2685 26.0802 47.0456 25.8255 46.7545 25.6527C46.4725 25.4798 46.1268 25.3934 45.7175 25.3934C45.3263 25.4025 44.9852 25.4889 44.694 25.6527C44.412 25.8164 44.1937 26.0438 44.0391 26.3349C43.8935 26.626 43.8207 26.9626 43.8207 27.3447V27.3584C43.8207 27.9315 43.9936 28.4227 44.3393 28.8321C44.685 29.2414 45.2626 29.6554 46.0722 30.0738L47.505 30.797C48.533 31.3428 49.3608 31.8932 49.9885 32.4481C50.6162 33.0031 51.0665 33.6171 51.3394 34.2903C51.6214 34.9544 51.7624 35.7231 51.7624 36.5964V36.6237C51.7624 37.779 51.5168 38.7797 51.0256 39.6257C50.5434 40.4717 49.8475 41.1267 48.9378 41.5906C48.0281 42.0546 46.9501 42.2866 45.7038 42.2866Z" fill="white"/>
</svg>
