<svg width="24" height="24" viewBox="0 0 24 24" fill="none" xmlns="http://www.w3.org/2000/svg">
<path d="M15.3236 20.7963L15.3236 20.7963L15.3249 20.7976C15.5273 20.9946 15.7772 21.1 16.0695 21.1C16.6484 21.1 17.1 20.6419 17.1 20.0407C17.1 19.7511 16.9877 19.4849 16.808 19.2881L16.8081 19.2881L16.8052 19.2851L9.43122 11.85L16.8052 4.41495L16.8052 4.41501L16.808 4.41196C16.9873 4.2156 17.1 3.95995 17.1 3.65936C17.1 3.05812 16.6484 2.6 16.0695 2.6C15.777 2.6 15.5262 2.70562 15.3233 2.91472C15.3231 2.91484 15.323 2.91496 15.3229 2.91509L7.22555 11.0839L7.22481 11.0847C7.01453 11.3013 6.9 11.5576 6.9 11.85C6.9 12.1407 7.01326 12.4086 7.22611 12.6167C7.22631 12.6169 7.22651 12.6171 7.22671 12.6173L15.3236 20.7963Z" fill="#007AFF" stroke="#007AFF" stroke-width="0.2"/>
</svg>
