<svg width="24" height="24" viewBox="0 0 24 24" fill="none" xmlns="http://www.w3.org/2000/svg">
<path d="M9.11742 7.15103L14.2511 12L9.11742 16.8489L9.11736 16.8489L9.11448 16.8518C8.98366 16.986 8.9 17.1626 8.9 17.3709C8.9 17.7896 9.23511 18.1 9.65132 18.1C9.86204 18.1 10.0446 18.0286 10.1928 17.8856C10.1929 17.8855 10.1931 17.8854 10.1932 17.8852L15.8611 12.5289L15.8611 12.5289L15.8619 12.5281C16.0143 12.381 16.1 12.2039 16.1 12C16.1 11.7978 16.0156 11.6128 15.8605 11.4706L10.1924 6.10709L10.1925 6.10708L10.1911 6.10584C10.0435 5.97124 9.86192 5.9 9.65132 5.9C9.23512 5.9 8.9 6.21039 8.9 6.62903C8.9 6.82996 8.98323 7.01346 9.11447 7.14813L9.11441 7.14819L9.11742 7.15103Z" fill="#C5C5C7" stroke="#C5C5C7" stroke-width="0.2"/>
</svg>
