<svg width="65" height="65" viewBox="0 0 65 65" fill="none" xmlns="http://www.w3.org/2000/svg">
<circle cx="32.4963" cy="32.4963" r="31.4963" fill="white"/>
<path d="M35.5326 44.152C35.5722 45.4183 34.385 46.6055 32.9604 46.6055C31.5754 46.6055 30.3882 45.4579 30.4278 44.0333C30.4278 43.9541 30.784 36.9103 30.9423 35.5253C29.9134 36.3563 23.8984 40.2344 23.8589 40.2344C23.3444 40.551 22.7904 40.6301 22.2364 40.5905C21.168 40.5114 20.2578 39.7595 20.1391 38.4932C19.8225 37.4643 20.2578 36.3563 21.2075 35.8815C21.2471 35.8023 27.6974 32.5178 29.0032 32.0034C27.6974 31.489 21.4054 28.2441 21.2867 28.1649C20.2974 27.6505 19.8225 26.4633 20.1391 25.4344C20.2974 24.366 21.2471 23.535 22.3156 23.4163C22.8696 23.3767 23.3444 23.4558 23.7797 23.6933C23.8589 23.7328 29.953 27.6109 30.9818 28.4419C30.784 27.0965 30.4278 20.0922 30.4278 20.0131C30.4278 18.5489 31.5754 17.4013 32.9604 17.4013C34.385 17.4013 35.5722 18.5885 35.5326 19.8944C35.5326 20.0131 35.216 27.136 35.0182 28.4815C36.0866 27.6505 42.1016 23.7724 42.1807 23.7328C42.616 23.4954 43.0909 23.4163 43.6053 23.4558C44.7529 23.5746 45.6235 24.4451 45.7818 25.474C46.0983 26.5029 45.663 27.69 44.6342 28.2045C44.555 28.2836 38.3422 31.489 37.0363 32.0034C38.3422 32.5178 44.7133 35.8023 44.7925 35.8815C45.7818 36.3959 46.0983 37.5039 45.8213 38.4932C45.663 39.7199 44.7529 40.4322 43.724 40.551C43.17 40.5905 42.6556 40.5114 42.1411 40.1948C42.062 40.1948 36.0866 36.3563 35.0182 35.5253C35.216 36.8708 35.5326 44.0729 35.5326 44.152Z" fill="#FF3A30"/>
</svg>
